<?xml version="1.0" encoding="UTF-8"?>
<svg id="Capa_2" data-name="Capa 2" xmlns="http://www.w3.org/2000/svg" viewBox="0 0 873.99 267.29">
  <defs>
    <style>
      .cls-1 {
        fill: #fff;
      }
    </style>
  </defs>
  <g id="Capa_1-2" data-name="Capa 1">
    <g>
      <path class="cls-1" d="M142.27,171.57c11.79-3.26,23.25-15.01,28.55-25.97,23.24-48.08-23.33-100.01-73.52-80.52-34.76,13.49-47.38,56.75-26.43,87.39,11.17,16.34,27.89,19.47,40.43,33.57,20.41,22.93,24.45,54.59,8,81.06-2.27,1.51-5.93-5.81-7.52-7.54-35.42-38.6-78.48-38.47-101.69-93.31C-39.66,48.63,105.71-54.32,199.29,32.04c38.25,35.3,56.69,118.77,11.46,154.49-23.38,18.47-56.12,12.17-68.48-14.97Z"/>
      <path class="cls-1" d="M715.28,58.06c2.89-14.35,30.25-16.23,32.91,3.09l.13,151.95c-.55,13.54-16.92,20.54-27.4,12.32-1.92-1.51-3.6-5.92-5.96-5.7-45.65,26.05-99.67-6.97-96.73-59.71,2.67-47.82,56.21-75.13,97.05-50.45v-51.5ZM675.02,133.8c-30.53,4.75-33.71,53.31-.77,61.29,47.79,11.57,52.86-69.4.77-61.29Z"/>
      <path class="cls-1" d="M305.78,79.56c-2.75-.49-7.92-5.2-9.35-7.65-5.35-9.14-.61-21.11,9.29-24.41l163.82-.7c11.71,2.6,16.91,12.82,12.48,24-1.06,2.66-6.6,8.76-9.24,8.76h-82l-1.5,1.5v136c0,.62-2.47,5.01-3.15,5.85-6.37,7.97-20.01,7.89-26.29-.42-.55-.73-3.56-6.07-3.56-6.44V81.06l-1.5-1.5h-49Z"/>
      <path class="cls-1" d="M777.06,99.76c4.99-.4,11.1,2.41,14.21,6.29l27.5,45.48c9.33-12.44,15.42-28.24,24.08-40.9,13.71-20.04,36.94-7.67,29.81,13.81l-77.55,134.45c-7.51,11.5-25.05,10.61-29.6-3.07-2.42-7.28-.54-9.58,2.6-15.94,3.8-7.72,32.28-52.48,31.97-55.67l-37.57-63.38c-2.22-10.23,3.76-20.21,14.56-21.07Z"/>
      <path class="cls-1" d="M449.29,123.56c12.2-6.16,24.53-25.81,39.68-19.19,11.07,4.85,12.53,20.07,3.33,27.71l-42.8,32.69c-1.44,2.46.42,39.3-.18,46.33-1.89,21.93-26.81,24.41-31.95,3.88l.15-100.67c7.38-22.24,34.91-12.78,31.77,9.26Z"/>
      <path class="cls-1" d="M525.02,101.79c9.21-1.47,18.19,4.88,19.26,14.27,3.49,30.57-2.54,67.66-.09,98.91-3.73,18.52-29.04,18.31-32.93.11l.11-99.94c.95-6.7,7.03-12.3,13.66-13.36Z"/>
      <path class="cls-1" d="M600.93,106.9c2.23,2.42,3.99,6.86,4.35,10.15-2.89,30.11,3.89,67.69-.09,96.92-2.5,18.38-27.29,20.22-32.86,3.03v-102.88c3.25-12.45,19.65-16.9,28.6-7.22Z"/>
      <path class="cls-1" d="M577.63,75.21c-7.14-7.77-5.35-21.79,4.28-26.53,16.97-8.35,30.99,13.06,18.39,26.39-5.92,6.27-16.82,6.49-22.67.13Z"/>
      <path class="cls-1" d="M517.62,50.91c8.89-8.19,23.05-3.8,25.96,7.83,5.33,21.3-22.83,29.45-29.78,10.79-2.4-6.45-1.38-13.83,3.82-18.62Z"/>
    </g>
  </g>
</svg>