<svg width="40" height="40" viewBox="0 0 40 40" fill="none" xmlns="http://www.w3.org/2000/svg">
<path d="M4.30992 29.0233C3.68475 29.6482 3.33344 30.496 3.33325 31.3799V34.9999C3.33325 35.442 3.50885 35.8659 3.82141 36.1785C4.13397 36.491 4.55789 36.6666 4.99992 36.6666H9.99992C10.4419 36.6666 10.8659 36.491 11.1784 36.1785C11.491 35.8659 11.6666 35.442 11.6666 34.9999V33.3333C11.6666 32.8912 11.8422 32.4673 12.1547 32.1548C12.4673 31.8422 12.8912 31.6666 13.3333 31.6666H14.9999C15.4419 31.6666 15.8659 31.491 16.1784 31.1785C16.491 30.8659 16.6666 30.442 16.6666 29.9999V28.3333C16.6666 27.8912 16.8422 27.4673 17.1547 27.1548C17.4673 26.8422 17.8912 26.6666 18.3333 26.6666H18.6199C19.5039 26.6664 20.3516 26.3151 20.9766 25.6899L22.3333 24.3333C24.6496 25.1402 27.1713 25.1371 29.4857 24.3245C31.8001 23.512 33.7703 21.938 35.0738 19.8601C36.3774 17.7823 36.9373 15.3236 36.6618 12.8862C36.3863 10.4488 35.2918 8.17703 33.5573 6.44256C31.8228 4.70809 29.5511 3.61358 27.1137 3.33809C24.6763 3.0626 22.2176 3.62243 20.1397 4.92601C18.0619 6.22959 16.4879 8.19973 15.6753 10.5141C14.8628 12.8286 14.8597 15.3502 15.6666 17.6666L4.30992 29.0233Z" stroke="url(#paint0_linear_50_580)" stroke-width="2.33333" stroke-linecap="round" stroke-linejoin="round"/>
<path d="M27.4998 13.3333C27.9601 13.3333 28.3332 12.9602 28.3332 12.5C28.3332 12.0397 27.9601 11.6666 27.4998 11.6666C27.0396 11.6666 26.6665 12.0397 26.6665 12.5C26.6665 12.9602 27.0396 13.3333 27.4998 13.3333Z" fill="url(#paint1_linear_50_580)" stroke="url(#paint2_linear_50_580)" stroke-width="2.33333" stroke-linecap="round" stroke-linejoin="round"/>
<defs>
<linearGradient id="paint0_linear_50_580" x1="20.0318" y1="3.26953" x2="20.0318" y2="36.6666" gradientUnits="userSpaceOnUse">
<stop stop-color="#F129A1"/>
<stop offset="1" stop-color="#A83CC1"/>
</linearGradient>
<linearGradient id="paint1_linear_50_580" x1="27.4998" y1="11.6666" x2="27.4998" y2="13.3333" gradientUnits="userSpaceOnUse">
<stop stop-color="#F129A1"/>
<stop offset="1" stop-color="#A83CC1"/>
</linearGradient>
<linearGradient id="paint2_linear_50_580" x1="27.4998" y1="11.6666" x2="27.4998" y2="13.3333" gradientUnits="userSpaceOnUse">
<stop stop-color="#F129A1"/>
<stop offset="1" stop-color="#A83CC1"/>
</linearGradient>
</defs>
</svg>
