<svg width="64" height="64" viewBox="0 0 64 64" fill="none" xmlns="http://www.w3.org/2000/svg">
<circle cx="32" cy="32" r="31.5" transform="matrix(-1 0 0 1 64 0)" fill="white" stroke="#E9E8E8"/>
<path d="M26.421 42.6527L25.3593 42.6636C22.6205 42.5366 20.0626 41.3705 18.3026 39.4456C16.8149 37.8196 16 35.7677 16 33.6461C16 30.0736 19.1615 27.1761 23.0634 27.1761H35.1074V16H26.2316C23.4472 16 20.7844 17.0468 18.8639 18.8943C17.1665 20.5296 16.1741 22.6729 16.071 24.9276L16.0203 33.1831" stroke="url(#paint0_linear_30_102)" stroke-width="5" stroke-miterlimit="10"/>
<path d="M37.5249 21.4293H37.6196C40.6627 21.4293 43.552 22.6527 45.5249 24.7758C47.1226 26.4947 48 28.6798 48 30.9361V38.3151C48 41.1181 46.6745 43.7832 44.3652 45.6229C42.4412 47.156 39.978 48 37.4286 48H29.0668L29.0093 37.6678L35.5942 37.5625C40.3077 37.4866 44.7253 35.4502 47.5993 32.0263" stroke="url(#paint1_linear_30_102)" stroke-width="5" stroke-miterlimit="10"/>
<defs>
<linearGradient id="paint0_linear_30_102" x1="14.732" y1="22.1169" x2="38.4258" y2="44.2276" gradientUnits="userSpaceOnUse">
<stop offset="0.286339" stop-color="#E42DA7"/>
<stop offset="1" stop-color="white" stop-opacity="0"/>
</linearGradient>
<linearGradient id="paint1_linear_30_102" x1="49.8969" y1="37.6802" x2="26.0402" y2="23.9491" gradientUnits="userSpaceOnUse">
<stop offset="0.400991" stop-color="#E42DA7"/>
<stop offset="1" stop-color="white" stop-opacity="0"/>
</linearGradient>
</defs>
</svg>
