<svg width="472" height="558" viewBox="0 0 472 558" fill="none" xmlns="http://www.w3.org/2000/svg">
<g opacity="0.08">
<path d="M472 279C472 433.087 347.087 558 193 558C38.9126 558 -86 433.087 -86 279C-86 124.913 38.9126 0 193 0C347.087 0 472 124.913 472 279ZM-2.3 279C-2.3 386.861 85.1388 474.3 193 474.3C300.861 474.3 388.3 386.861 388.3 279C388.3 171.139 300.861 83.7 193 83.7C85.1388 83.7 -2.3 171.139 -2.3 279Z" fill="url(#paint0_linear_52_610)"/>
<path d="M229.133 515.253C232.473 537.09 217.433 557.805 195.342 557.99C169.9 558.204 144.484 554.937 119.811 548.229C82.2343 538.014 47.2119 520.046 16.9973 495.481C-13.2174 470.916 -37.9552 440.298 -55.6246 405.597C-73.294 370.896 -83.5036 332.88 -85.5967 293.996C-87.6897 255.112 -81.6198 216.22 -67.7775 179.823C-53.9351 143.426 -32.6269 110.329 -5.22373 82.6627C22.1795 54.9962 55.0707 33.3725 91.3339 19.1827C115.144 9.86573 140.062 3.88919 165.381 1.37043C187.364 -0.816517 204.54 18.1638 203.564 40.2336L203.4 43.9299C202.424 65.9997 183.576 82.6806 161.769 86.2132C148.145 88.4203 134.756 92.0713 121.834 97.1279C96.4495 107.061 73.4256 122.197 54.2434 141.564C35.0612 160.93 20.1454 184.098 10.4558 209.576C0.766121 235.054 -3.48282 262.278 -2.01768 289.497C-0.552551 316.716 6.5942 343.327 18.9628 367.618C31.3313 391.909 48.6478 413.341 69.7981 430.537C90.9484 447.732 115.464 460.31 141.768 467.46C155.159 471.101 168.862 473.293 182.644 474.025C204.705 475.197 225.234 489.758 228.573 511.595L229.133 515.253Z" fill="url(#paint1_linear_52_610)"/>
<path d="M432 279C454.091 279 472.294 296.999 469.138 318.864C463.215 359.892 448.196 399.259 424.98 434.004C394.323 479.885 350.749 515.646 299.769 536.762C248.788 557.879 192.69 563.404 138.57 552.639C97.5852 544.487 59.1283 527.27 25.9292 502.447C8.23656 489.218 8.38042 463.619 24.0014 447.998L26.6177 445.382C42.2387 429.761 67.4041 430.182 85.8758 442.299C106.753 455.994 130.168 465.628 154.899 470.547C192.783 478.083 232.052 474.215 267.738 459.434C303.424 444.652 333.926 419.62 355.386 387.503C369.395 366.537 379.14 343.168 384.218 318.722C388.711 297.092 406.209 279 428.3 279H432Z" fill="url(#paint2_linear_52_610)"/>
</g>
<defs>
<linearGradient id="paint0_linear_52_610" x1="193" y1="0" x2="434.641" y2="294.103" gradientUnits="userSpaceOnUse">
<stop stop-color="#F129A1"/>
<stop offset="1" stop-color="#A83CC1"/>
</linearGradient>
<linearGradient id="paint1_linear_52_610" x1="174.718" y1="19.8718" x2="17.3333" y2="460.231" gradientUnits="userSpaceOnUse">
<stop stop-color="#A83CC1"/>
<stop offset="1" stop-color="#F129A1"/>
</linearGradient>
<linearGradient id="paint2_linear_52_610" x1="437.82" y1="289.333" x2="18.9231" y2="459.436" gradientUnits="userSpaceOnUse">
<stop stop-color="#F129A1"/>
<stop offset="1" stop-color="#A83CC1"/>
</linearGradient>
</defs>
</svg>
