<svg width="1432" height="4577" viewBox="0 0 1432 4577" fill="none" xmlns="http://www.w3.org/2000/svg">
<path d="M22.3153 0V4577M45.4362 0V4577M68.557 0V4577M91.6778 0V4577M114.799 0V4577M137.919 0V4577M161.04 0V4577M184.161 0V4577M207.282 0V4577M230.403 0V4577M253.524 0V4577M276.645 0V4577M299.765 0V4577M322.886 0V4577M346.007 0V4577M369.128 0V4577M392.249 0V4577M415.369 0V4577M438.49 0V4577M461.611 0V4577M484.732 0V4577M507.853 0V4577M530.974 0V4577M554.094 0V4577M577.215 0V4577M600.336 0V4577M623.457 0V4577M646.578 0V4577M669.699 0V4577M692.819 0V4577M715.94 0V4577M739.061 0V4577M762.182 0V4577M785.303 0V4577M808.424 0V4577M831.545 0V4577M854.665 0V4577M877.786 0V4577M900.907 0V4577M924.028 0V4577M947.149 0V4577M970.27 0V4577M993.39 0V4577M1016.51 0V4577M1039.63 0V4577M1062.75 0V4577M1085.87 0V4577M1108.99 0V4577M1132.12 0V4577M1155.24 0V4577M1178.36 0V4577M1201.48 0V4577M1224.6 0V4577M1247.72 0V4577M1270.84 0V4577M1293.96 0V4577M1317.08 0V4577M1340.2 0V4577M1363.32 0V4577M1386.44 0V4577M1409.57 0V4577M0 55.0935H1432M0 186.47H1432M0 317.847H1432M0 449.224H1432M0 580.601H1432M0 711.978H1432M0 843.355H1432M0 974.732H1432M0 1106.11H1432M0 1237.49H1432M0 1368.86H1432M0 1500.24H1432M0 1631.62H1432M0 1762.99H1432M0 1894.37H1432M0 2025.75H1432M0 2157.12H1432M0 2288.5H1432M0 2419.88H1432M0 2551.25H1432M0 2682.63H1432M0 2814.01H1432M0 2945.38H1432M0 3076.76H1432M0 3208.14H1432M0 3339.52H1432M0 3470.89H1432M0 3602.27H1432M0 3733.65H1432M0 3865.02H1432M0 3996.4H1432M0 4127.78H1432M0 4259.15H1432M0 4390.53H1432M0 4521.91H1432" stroke="url(#paint0_linear_174_2)" stroke-miterlimit="10"/>
<defs>
<linearGradient id="paint0_linear_174_2" x1="716" y1="0" x2="716" y2="4577" gradientUnits="userSpaceOnUse">
<stop stop-color="#FFE8F7"/>
<stop offset="1" stop-color="#FFE8F7" stop-opacity="0"/>
</linearGradient>
</defs>
</svg>
