<svg width="32" height="32" viewBox="0 0 32 32" fill="none" xmlns="http://www.w3.org/2000/svg">
<path d="M16 2.71997C8.66663 2.71997 2.66663 8.70664 2.66663 16.08C2.66663 22.7466 7.54662 28.28 13.92 29.28V19.9466H10.5333V16.08H13.92V13.1333C13.92 9.78664 15.9066 7.94664 18.96 7.94664C20.4133 7.94664 21.9333 8.19997 21.9333 8.19997V11.4933H20.2533C18.6 11.4933 18.08 12.52 18.08 13.5733V16.08H21.7866L21.1866 19.9466H18.08V29.28C21.2219 28.7838 24.0829 27.1807 26.1465 24.7601C28.2102 22.3394 29.3404 19.2608 29.3333 16.08C29.3333 8.70664 23.3333 2.71997 16 2.71997Z" fill="#A83CC1"/>
</svg>
