<svg width="996" height="790" viewBox="0 0 996 790" fill="none" xmlns="http://www.w3.org/2000/svg">
<g filter="url(#filter0_f_174_417)">
<circle cx="498" cy="395" r="195" fill="url(#paint0_linear_174_417)" fill-opacity="0.8"/>
</g>
<path d="M0 461H124.5L306.5 410.5" stroke="url(#paint1_linear_174_417)"/>
<path d="M92 218.5H181.5L317 369" stroke="url(#paint2_linear_174_417)"/>
<path d="M43.5 282.5H145L307.5 389.5" stroke="url(#paint3_linear_174_417)"/>
<path d="M7.5 370H145.5L298.5 402.5" stroke="url(#paint4_linear_174_417)"/>
<path d="M996 461H871.5L689.5 410.5" stroke="url(#paint5_linear_174_417)"/>
<path d="M903.5 218.5H814.5L679 369" stroke="url(#paint6_linear_174_417)"/>
<path d="M952 282.5H851L688.5 389.5" stroke="url(#paint7_linear_174_417)"/>
<path d="M988 370H850.5L697.5 402.5" stroke="url(#paint8_linear_174_417)"/>
<defs>
<filter id="filter0_f_174_417" x="103" y="0" width="790" height="790" filterUnits="userSpaceOnUse" color-interpolation-filters="sRGB">
<feFlood flood-opacity="0" result="BackgroundImageFix"/>
<feBlend mode="normal" in="SourceGraphic" in2="BackgroundImageFix" result="shape"/>
<feGaussianBlur stdDeviation="100" result="effect1_foregroundBlur_174_417"/>
</filter>
<linearGradient id="paint0_linear_174_417" x1="653.536" y1="276.994" x2="353.298" y2="514.167" gradientUnits="userSpaceOnUse">
<stop stop-color="#A83CC1"/>
<stop offset="1" stop-color="#F129A1"/>
</linearGradient>
<linearGradient id="paint1_linear_174_417" x1="306.5" y1="435.75" x2="-11.4999" y2="435.75" gradientUnits="userSpaceOnUse">
<stop stop-color="#E42DA7" stop-opacity="0"/>
<stop offset="1" stop-color="#A83CC1"/>
</linearGradient>
<linearGradient id="paint2_linear_174_417" x1="81" y1="293.75" x2="317" y2="293.75" gradientUnits="userSpaceOnUse">
<stop stop-color="#A83CC1"/>
<stop offset="1" stop-color="#E42DA7" stop-opacity="0"/>
</linearGradient>
<linearGradient id="paint3_linear_174_417" x1="31" y1="336" x2="307.5" y2="336" gradientUnits="userSpaceOnUse">
<stop stop-color="#A83CC1"/>
<stop offset="1" stop-color="#E42DA7" stop-opacity="0"/>
</linearGradient>
<linearGradient id="paint4_linear_174_417" x1="1" y1="386.25" x2="298.5" y2="386.25" gradientUnits="userSpaceOnUse">
<stop stop-color="#A83CC1"/>
<stop offset="1" stop-color="#E42DA7" stop-opacity="0"/>
</linearGradient>
<linearGradient id="paint5_linear_174_417" x1="1007.5" y1="435.75" x2="689.5" y2="435.75" gradientUnits="userSpaceOnUse">
<stop stop-color="#A83CC1"/>
<stop offset="1" stop-color="#E42DA7" stop-opacity="0"/>
</linearGradient>
<linearGradient id="paint6_linear_174_417" x1="915" y1="293.75" x2="679" y2="293.75" gradientUnits="userSpaceOnUse">
<stop stop-color="#A83CC1"/>
<stop offset="1" stop-color="#E42DA7" stop-opacity="0"/>
</linearGradient>
<linearGradient id="paint7_linear_174_417" x1="965" y1="336" x2="688.5" y2="336" gradientUnits="userSpaceOnUse">
<stop stop-color="#A83CC1"/>
<stop offset="1" stop-color="#E42DA7" stop-opacity="0"/>
</linearGradient>
<linearGradient id="paint8_linear_174_417" x1="995" y1="386.25" x2="697.5" y2="386.25" gradientUnits="userSpaceOnUse">
<stop stop-color="#A83CC1"/>
<stop offset="1" stop-color="#E42DA7" stop-opacity="0"/>
</linearGradient>
</defs>
</svg>
