<svg width="32" height="32" viewBox="0 0 32 32" fill="none" xmlns="http://www.w3.org/2000/svg">
<path fill-rule="evenodd" clip-rule="evenodd" d="M9.95337 1.42137C11.5174 1.34937 12.016 1.33337 16 1.33337C19.984 1.33337 20.4827 1.35071 22.0454 1.42137C23.608 1.49204 24.6747 1.74137 25.608 2.10271C26.5854 2.47204 27.472 3.04937 28.2054 3.79604C28.952 4.52804 29.528 5.41337 29.896 6.39204C30.2587 7.32537 30.5067 8.39204 30.5787 9.95204C30.6507 11.5187 30.6667 12.0174 30.6667 16C30.6667 19.9827 30.6494 20.4827 30.5787 22.0467C30.508 23.6067 30.2587 24.6734 29.896 25.6067C29.5279 26.5854 28.9509 27.4722 28.2054 28.2054C27.472 28.952 26.5854 29.528 25.608 29.896C24.6747 30.2587 23.608 30.5067 22.048 30.5787C20.4827 30.6507 19.984 30.6667 16 30.6667C12.016 30.6667 11.5174 30.6494 9.95337 30.5787C8.39337 30.508 7.32671 30.2587 6.39337 29.896C5.41466 29.5279 4.52788 28.9509 3.79471 28.2054C3.04881 27.4727 2.47143 26.5864 2.10271 25.608C1.74137 24.6747 1.49337 23.608 1.42137 22.048C1.34937 20.4814 1.33337 19.9827 1.33337 16C1.33337 12.0174 1.35071 11.5174 1.42137 9.95471C1.49204 8.39204 1.74137 7.32537 2.10271 6.39204C2.47182 5.41356 3.04967 4.52723 3.79604 3.79471C4.52831 3.04897 5.41416 2.47161 6.39204 2.10271C7.32537 1.74137 8.39337 1.49337 9.95337 1.42137ZM21.9254 4.06137C20.3787 3.99071 19.9147 3.97604 15.9987 3.97604C12.0827 3.97604 11.6187 3.99071 10.072 4.06137C8.64137 4.12671 7.86537 4.36537 7.34804 4.56671C6.66404 4.83337 6.17471 5.14937 5.66137 5.66271C5.17434 6.13576 4.79979 6.71217 4.56537 7.34937C4.36404 7.86671 4.12537 8.64271 4.06004 10.0734C3.98937 11.62 3.97471 12.084 3.97471 16C3.97471 19.916 3.98937 20.38 4.06004 21.9267C4.12537 23.3574 4.36404 24.1334 4.56537 24.6507C4.80004 25.2867 5.17471 25.864 5.66137 26.3374C6.13471 26.824 6.71204 27.1987 7.34804 27.4334C7.86537 27.6347 8.64137 27.8734 10.072 27.9387C11.6187 28.0094 12.0814 28.024 15.9987 28.024C19.916 28.024 20.3787 28.0094 21.9254 27.9387C23.356 27.8734 24.132 27.6347 24.6494 27.4334C25.3334 27.1667 25.8227 26.8507 26.336 26.3374C26.8227 25.864 27.1974 25.2867 27.432 24.6507C27.6334 24.1334 27.872 23.3574 27.9374 21.9267C28.008 20.38 28.0227 19.916 28.0227 16C28.0227 12.084 28.008 11.62 27.9374 10.0734C27.872 8.64271 27.6334 7.86671 27.432 7.34937C27.1654 6.66537 26.8494 6.17604 26.336 5.66271C25.863 5.17568 25.2866 4.80113 24.6494 4.56671C24.132 4.36537 23.356 4.12671 21.9254 4.06137ZM14.1254 20.5214C15.1716 20.9569 16.3365 21.0157 17.4213 20.6877C18.506 20.3597 19.4432 19.6653 20.0729 18.723C20.7025 17.7808 20.9854 16.6492 20.8734 15.5215C20.7614 14.3938 20.2614 13.34 19.4587 12.54C18.947 12.0287 18.3283 11.6371 17.6472 11.3936C16.966 11.15 16.2393 11.0605 15.5194 11.1315C14.7995 11.2025 14.1042 11.4323 13.4838 11.8042C12.8633 12.1762 12.333 12.681 11.9311 13.2825C11.5292 13.884 11.2656 14.5671 11.1594 15.2827C11.0532 15.9982 11.1069 16.7284 11.3168 17.4207C11.5266 18.113 11.8873 18.7502 12.373 19.2863C12.8587 19.8225 13.4571 20.2443 14.1254 20.5214ZM10.6694 10.6694C11.3694 9.96934 12.2005 9.41404 13.1151 9.03519C14.0297 8.65633 15.01 8.46134 16 8.46134C16.99 8.46134 17.9703 8.65633 18.885 9.03519C19.7996 9.41404 20.6307 9.96934 21.3307 10.6694C22.0307 11.3694 22.586 12.2005 22.9649 13.1151C23.3437 14.0297 23.5387 15.01 23.5387 16C23.5387 16.99 23.3437 17.9703 22.9649 18.885C22.586 19.7996 22.0307 20.6307 21.3307 21.3307C19.9169 22.7445 17.9994 23.5387 16 23.5387C14.0007 23.5387 12.0832 22.7445 10.6694 21.3307C9.25559 19.9169 8.46134 17.9994 8.46134 16C8.46134 14.0007 9.25559 12.0832 10.6694 10.6694ZM25.2107 9.58404C25.3842 9.4204 25.5231 9.22361 25.6191 9.00534C25.7152 8.78706 25.7665 8.55173 25.7699 8.31328C25.7734 8.07483 25.729 7.8381 25.6393 7.61712C25.5497 7.39614 25.4166 7.19539 25.248 7.02676C25.0794 6.85813 24.8786 6.72505 24.6576 6.6354C24.4366 6.54574 24.1999 6.50134 23.9615 6.50482C23.723 6.50829 23.4877 6.55958 23.2694 6.65564C23.0511 6.75169 22.8543 6.89057 22.6907 7.06404C22.3725 7.40141 22.1982 7.84954 22.205 8.31328C22.2117 8.77703 22.399 9.21988 22.7269 9.54783C23.0549 9.87578 23.4977 10.063 23.9615 10.0698C24.4252 10.0765 24.8733 9.90229 25.2107 9.58404Z" fill="#A83CC1"/>
</svg>
