<svg width="40" height="40" viewBox="0 0 40 40" fill="none" xmlns="http://www.w3.org/2000/svg">
<g clip-path="url(#clip0_50_573)">
<path fill-rule="evenodd" clip-rule="evenodd" d="M22.143 8.92857C22.143 6.56057 23.0837 4.28955 24.7581 2.61512C26.4325 0.940686 28.7035 0 31.0715 0C33.4395 0 35.7106 0.940686 37.385 2.61512C39.0594 4.28955 40.0001 6.56057 40.0001 8.92857C40.0001 11.2966 39.0594 13.5676 37.385 15.242C35.7106 16.9165 33.4395 17.8571 31.0715 17.8571C28.7035 17.8571 26.4325 16.9165 24.7581 15.242C23.0837 13.5676 22.143 11.2966 22.143 8.92857ZM18.7087 3.61714C19.1731 3.57098 19.6011 3.3448 19.9008 2.98704C20.2006 2.62928 20.3484 2.16837 20.3125 1.70301C20.2767 1.23764 20.06 0.804811 19.709 0.497191C19.358 0.18957 18.9004 0.0316141 18.4344 0.0571429C15.0371 0.324303 11.7643 1.45486 8.92652 3.34161C6.08869 5.22835 3.77986 7.80873 2.21898 10.838C0.658106 13.8674 -0.103073 17.2452 0.00763095 20.6512C0.118335 24.0572 1.09725 27.3784 2.85155 30.3L0.111546 37.5886C0.000470619 37.884 -0.0303011 38.2037 0.0223654 38.5149C0.075032 38.8261 0.209255 39.1178 0.411359 39.3603C0.613464 39.6028 0.876228 39.7873 1.17288 39.8952C1.46954 40.003 1.78948 40.0303 2.10012 39.9743L11.7544 38.2286C14.6806 39.5535 17.8828 40.154 21.0902 39.9795C24.2976 39.805 27.4158 38.8606 30.1809 37.226C32.9461 35.5915 35.2769 33.315 36.9761 30.5891C38.6753 27.8632 39.693 24.7681 39.943 21.5657C39.9665 21.329 39.9425 21.0901 39.8724 20.8628C39.8023 20.6355 39.6875 20.4245 39.5348 20.2422C39.382 20.0599 39.1944 19.91 38.9829 19.8012C38.7714 19.6924 38.5403 19.6269 38.3032 19.6087C38.0661 19.5904 37.8277 19.6197 37.602 19.6948C37.3763 19.7699 37.168 19.8894 36.9891 20.0461C36.8102 20.2029 36.6645 20.3938 36.5604 20.6076C36.4563 20.8215 36.396 21.0539 36.383 21.2914C36.174 23.9474 35.3223 26.5128 33.9015 28.7665C32.4807 31.0203 30.5332 32.8948 28.2269 34.2286C25.9206 35.5624 23.3246 36.3155 20.6625 36.423C18.0005 36.5305 15.3522 35.9892 12.9458 34.8457C12.5725 34.6142 12.1265 34.5297 11.6944 34.6086L11.6801 34.6114L4.56297 35.8971L6.50583 30.7257L6.50869 30.7171C6.61589 30.4279 6.64696 30.116 6.59893 29.8113C6.5509 29.5066 6.42538 29.2194 6.2344 28.9771C4.67554 26.5896 3.76494 23.8374 3.59213 20.9913C3.41933 18.1451 3.99027 15.303 5.24883 12.7444C6.50738 10.1858 8.4102 7.99877 10.7702 6.39845C13.1301 4.79814 15.866 3.83962 18.7087 3.61714Z" fill="url(#paint0_linear_50_573)"/>
</g>
<defs>
<linearGradient id="paint0_linear_50_573" x1="19.9986" y1="0" x2="19.9986" y2="40.0091" gradientUnits="userSpaceOnUse">
<stop stop-color="#F129A1"/>
<stop offset="1" stop-color="#A83CC1"/>
</linearGradient>
<clipPath id="clip0_50_573">
<rect width="40" height="40" fill="white"/>
</clipPath>
</defs>
</svg>
