<svg width="32" height="32" viewBox="0 0 32 32" fill="none" xmlns="http://www.w3.org/2000/svg">
<path d="M16.0533 2.6667C8.77328 2.6667 2.83994 8.60003 2.83994 15.88C2.83994 18.2134 3.45328 20.48 4.59994 22.48L2.73328 29.3334L9.73328 27.4934C11.6666 28.5467 13.8399 29.1067 16.0533 29.1067C23.3333 29.1067 29.2666 23.1734 29.2666 15.8934C29.2666 12.36 27.8933 9.04003 25.3999 6.5467C24.1774 5.31217 22.7213 4.33332 21.1166 3.66718C19.5119 3.00104 17.7907 2.66094 16.0533 2.6667ZM16.0666 4.89336C18.9999 4.89336 21.7466 6.04003 23.8266 8.12003C24.8471 9.14072 25.6563 10.3527 26.2076 11.6866C26.759 13.0205 27.0419 14.45 27.0399 15.8934C27.0399 21.9467 22.1066 26.8667 16.0533 26.8667C14.0799 26.8667 12.1466 26.3467 10.4666 25.3334L10.0666 25.1067L5.90661 26.2L7.01328 22.1467L6.74661 21.72C5.646 19.9712 5.0635 17.9463 5.06661 15.88C5.07994 9.8267 9.99994 4.89336 16.0666 4.89336ZM11.3733 9.77336C11.1599 9.77336 10.7999 9.85336 10.4933 10.1867C10.1999 10.52 9.33328 11.3334 9.33328 12.9467C9.33328 14.5734 10.5199 16.1334 10.6666 16.36C10.8533 16.5867 13.0133 19.92 16.3333 21.3334C17.1199 21.6934 17.7333 21.8934 18.2133 22.04C18.9999 22.2934 19.7199 22.2534 20.2933 22.1734C20.9333 22.08 22.2399 21.3734 22.5199 20.6C22.7999 19.8267 22.7999 19.1734 22.7199 19.0267C22.6266 18.8934 22.4133 18.8134 22.0799 18.6667C21.7466 18.48 20.1199 17.68 19.8266 17.5734C19.5199 17.4667 19.3333 17.4134 19.0799 17.7334C18.8666 18.0667 18.2266 18.8134 18.0399 19.0267C17.8399 19.2534 17.6533 19.28 17.3333 19.12C16.9866 18.9467 15.9199 18.6 14.6666 17.48C13.6799 16.6 13.0266 15.52 12.8266 15.1867C12.6666 14.8667 12.8133 14.6667 12.9733 14.52C13.1199 14.3734 13.3333 14.1334 13.4666 13.9334C13.6399 13.7467 13.6933 13.6 13.7999 13.3867C13.9066 13.16 13.8533 12.9734 13.7733 12.8134C13.6933 12.6667 13.0266 11.0134 12.7466 10.36C12.4799 9.72003 12.2133 9.80003 11.9999 9.7867C11.8133 9.7867 11.5999 9.77336 11.3733 9.77336Z" fill="white"/>
</svg>
