<svg width="64" height="64" viewBox="0 0 64 64" fill="none" xmlns="http://www.w3.org/2000/svg">
<path d="M20.2122 15.9439C19.0268 16.4048 18.0244 17.0195 17.022 18.0219C16.0195 19.017 15.4049 20.0268 14.9439 21.2048C14.4976 22.3463 14.1976 23.6561 14.1098 25.5731C14.022 27.4902 14 28.1048 14 32.9926C14 37.8804 14.022 38.4951 14.1098 40.4121C14.1976 42.3292 14.5049 43.639 14.9439 44.7804C15.4049 45.9658 16.0195 46.9682 17.022 47.9707C18.0244 48.9731 19.0268 49.5878 20.2122 50.0487C21.3537 50.4951 22.6634 50.7951 24.5805 50.8829C26.4976 50.9707 27.1122 50.9926 32 50.9926C36.8878 50.9926 37.5024 50.9707 39.4195 50.8829C41.3366 50.7951 42.6463 50.4878 43.7878 50.0487C44.9732 49.5878 45.9756 48.9731 46.978 47.9707C47.9805 46.9682 48.5951 45.9658 49.0561 44.7804C49.5024 43.639 49.8024 42.3292 49.8902 40.4121C49.978 38.4951 50 37.8804 50 32.9926C50 28.1048 49.978 27.4902 49.8902 25.5731C49.8024 23.6561 49.4951 22.3463 49.0561 21.2048C48.5951 20.0268 47.9805 19.017 46.9854 18.0219C45.9829 17.0195 44.9805 16.4048 43.7951 15.9439C42.6537 15.4975 41.3439 15.1975 39.4268 15.1097C37.5098 15.0219 36.8951 15 32.0073 15C27.1195 15 26.5049 15.0219 24.5878 15.1097C22.6634 15.1902 21.3537 15.4975 20.2122 15.9439ZM39.2732 18.3439C41.0293 18.4243 41.9805 18.717 42.6171 18.9658C43.4585 19.2951 44.0585 19.6829 44.6878 20.3121C45.3171 20.9414 45.7049 21.5414 46.0341 22.3829C46.2829 23.0195 46.5756 23.9707 46.6561 25.7268C46.7439 27.6219 46.7585 28.1926 46.7585 33C46.7585 37.8073 46.7366 38.378 46.6561 40.2731C46.5756 42.0292 46.2829 42.9804 46.0341 43.617C45.7049 44.4585 45.3171 45.0585 44.6878 45.6878C44.0585 46.317 43.4585 46.7048 42.6171 47.0341C41.9805 47.2829 41.0293 47.5756 39.2732 47.6561C37.378 47.7439 36.8073 47.7585 32 47.7585C27.1927 47.7585 26.622 47.7365 24.7268 47.6561C22.9707 47.5756 22.0195 47.2829 21.3829 47.0341C20.5415 46.7048 19.9415 46.317 19.3122 45.6878C18.6829 45.0585 18.2951 44.4585 17.9659 43.617C17.7171 42.9804 17.4244 42.0292 17.3439 40.2731C17.2561 38.378 17.2415 37.8073 17.2415 33C17.2415 28.1926 17.2634 27.6219 17.3439 25.7268C17.4244 23.9707 17.7171 23.0195 17.9659 22.3829C18.2951 21.5414 18.6829 20.9414 19.3122 20.3121C19.9415 19.6829 20.5415 19.2951 21.3829 18.9658C22.0195 18.717 22.9707 18.4243 24.7268 18.3439C26.622 18.2561 27.1927 18.2414 32 18.2414C36.8073 18.2414 37.378 18.2561 39.2732 18.3439Z" fill="url(#paint0_radial_244_215)"/>
<path d="M22.7585 32.9999C22.7585 38.1072 26.9 42.2414 32 42.2414C37.1 42.2414 41.2415 38.0999 41.2415 32.9999C41.2415 27.8999 37.1073 23.7585 32 23.7585C26.8927 23.7585 22.7585 27.8926 22.7585 32.9999ZM38 32.9999C38 36.3146 35.3146 38.9999 32 38.9999C28.6854 38.9999 26 36.3146 26 32.9999C26 29.6853 28.6854 26.9999 32 26.9999C35.3146 26.9999 38 29.6853 38 32.9999Z" fill="url(#paint1_radial_244_215)"/>
<path d="M41.6147 25.5511C42.8068 25.5511 43.7732 24.5847 43.7732 23.3926C43.7732 22.2004 42.8068 21.234 41.6147 21.234C40.4225 21.234 39.4561 22.2004 39.4561 23.3926C39.4561 24.5847 40.4225 25.5511 41.6147 25.5511Z" fill="#654C9F"/>
<defs>
<radialGradient id="paint0_radial_244_215" cx="0" cy="0" r="1" gradientUnits="userSpaceOnUse" gradientTransform="translate(14.655 47.6973) rotate(-3.00009) scale(52.0474 44.2397)">
<stop stop-color="#FED576"/>
<stop offset="0.2634" stop-color="#F47133"/>
<stop offset="0.6091" stop-color="#BC3081"/>
<stop offset="1" stop-color="#4C63D2"/>
</radialGradient>
<radialGradient id="paint1_radial_244_215" cx="0" cy="0" r="1" gradientUnits="userSpaceOnUse" gradientTransform="translate(23.0938 40.5466) rotate(-3.00009) scale(26.727 22.7177)">
<stop stop-color="#FED576"/>
<stop offset="0.2634" stop-color="#F47133"/>
<stop offset="0.6091" stop-color="#BC3081"/>
<stop offset="1" stop-color="#4C63D2"/>
</radialGradient>
</defs>
</svg>
