<svg width="64" height="64" viewBox="0 0 64 64" fill="none" xmlns="http://www.w3.org/2000/svg">
<path d="M14.8051 23H48.1782C50.2903 23 52 24.7097 52 26.8218V39.5608C52 41.673 50.2903 43.3826 48.1782 43.3826H36.2102L37.8529 47.4054L30.6284 43.3826H14.8218C12.7098 43.3826 11.0001 41.673 11.0001 39.5608V26.8218C10.9833 24.7265 12.6928 23 14.8051 23Z" fill="#9B5C8F"/>
<path d="M13.3348 26.4834C13.5682 26.1666 13.9181 26 14.3848 25.9667C15.2349 25.8999 15.7183 26.2998 15.8349 27.1666C16.3515 30.65 16.9182 33.6001 17.5181 36.0167L21.1681 29.0667C21.5015 28.4333 21.9182 28.1 22.4182 28.0667C23.1516 28.0167 23.6015 28.4832 23.7849 29.4666C24.2016 31.6832 24.7349 33.5666 25.3682 35.1666C25.8015 30.9333 26.5349 27.8833 27.5682 26C27.8181 25.5333 28.1848 25.3 28.6682 25.2665C29.0516 25.2334 29.4015 25.35 29.7182 25.6C30.0348 25.85 30.2015 26.1666 30.2348 26.55C30.2515 26.85 30.2015 27.1 30.0683 27.35C29.4182 28.55 28.8847 30.5667 28.4515 33.3666C28.0349 36.0833 27.8849 38.2001 27.9848 39.7168C28.0183 40.1332 27.9515 40.4999 27.7849 40.8167C27.5847 41.1833 27.2849 41.3834 26.9015 41.4167C26.4681 41.45 26.0182 41.2501 25.5849 40.8001C24.0349 39.2166 22.8015 36.85 21.9016 33.7C20.8181 35.8333 20.0181 37.4333 19.5015 38.4999C18.5181 40.3833 17.6848 41.3501 16.9848 41.4C16.5347 41.4333 16.1515 41.0499 15.8182 40.2501C14.9682 38.0667 14.0515 33.8499 13.0683 27.6C13.0015 27.1666 13.1015 26.7832 13.3348 26.4834ZM49.1516 29.1C48.5516 28.05 47.6682 27.4168 46.4849 27.1666C46.1682 27.1 45.8683 27.0667 45.5849 27.0667C43.9849 27.0667 42.6849 27.9 41.6682 29.5667C40.8015 30.9833 40.3683 32.5499 40.3683 34.2667C40.3683 35.55 40.6349 36.6499 41.1682 37.5667C41.7682 38.6167 42.6516 39.2499 43.8348 39.4999C44.1515 39.5667 44.4514 39.6 44.7349 39.6C46.3515 39.6 47.6515 38.7667 48.6515 37.1C49.5181 35.6666 49.9515 34.0999 49.9515 32.3834C49.9682 31.0834 49.6849 29.9999 49.1516 29.1ZM47.0516 33.7167C46.8182 34.8166 46.4015 35.6333 45.7847 36.1832C45.3015 36.6166 44.8515 36.7999 44.4349 36.7166C44.0349 36.6333 43.7014 36.2834 43.4516 35.6333C43.2514 35.1166 43.1516 34.5999 43.1516 34.1166C43.1516 33.7 43.1849 33.2833 43.2682 32.9C43.4183 32.2167 43.7016 31.5499 44.1515 30.9167C44.7016 30.0999 45.2849 29.7667 45.8848 29.8833C46.2849 29.9666 46.6184 30.3167 46.8682 30.9666C47.0682 31.4833 47.1682 32 47.1682 32.4833C47.1682 32.9167 47.1349 33.3333 47.0516 33.7165V33.7167ZM38.7182 29.1C38.1182 28.05 37.2181 27.4168 36.0516 27.1666C35.7349 27.1 35.435 27.0667 35.1515 27.0667C33.5515 27.0667 32.2515 27.9 31.2349 29.5667C30.3682 30.9833 29.9349 32.5499 29.9349 34.2667C29.9349 35.55 30.2015 36.6499 30.7348 37.5667C31.3348 38.6167 32.2182 39.2499 33.4015 39.4999C33.7182 39.5667 34.0181 39.6 34.3015 39.6C35.9181 39.6 37.2181 38.7667 38.2182 37.1C39.0849 35.6666 39.5181 34.0999 39.5181 32.3834C39.5181 31.0834 39.2515 29.9999 38.7182 29.1ZM36.6015 33.7167C36.3682 34.8166 35.9515 35.6333 35.3349 36.1832C34.8515 36.6166 34.4015 36.7999 33.9847 36.7166C33.5848 36.6333 33.2515 36.2834 33.0014 35.6333C32.8015 35.1166 32.7016 34.5999 32.7016 34.1166C32.7016 33.7 32.7349 33.2833 32.8182 32.9C32.9682 32.2167 33.2515 31.5499 33.7016 30.9167C34.2516 30.0999 34.8349 29.7667 35.4348 29.8833C35.8349 29.9666 36.1683 30.3167 36.4182 30.9666C36.6184 31.4833 36.7181 32 36.7181 32.4833C36.7349 32.9167 36.6848 33.3333 36.6015 33.7165V33.7167Z" fill="white"/>
</svg>
