<svg width="45" height="45" viewBox="0 0 45 45" fill="none" xmlns="http://www.w3.org/2000/svg">
<path d="M33.8394 11.8684C33.1057 11.1941 30.1409 9.05023 23.5368 9.02111C23.5368 9.02111 15.749 8.55332 11.9525 12.022C9.83918 14.1275 9.09575 17.2083 9.01733 21.0278C8.93891 24.8473 8.83745 32.0053 15.7645 33.9462H15.7711L15.7667 36.9078C15.7667 36.9078 15.7224 38.1069 16.515 38.3514C17.4737 38.6479 18.0364 37.7366 18.9518 36.7543C19.4542 36.215 20.148 35.4228 20.6708 34.8174C25.4083 35.2145 29.0519 34.3068 29.4657 34.1726C30.4222 33.8637 35.8349 33.1726 36.7152 26.0155C37.6239 18.6381 36.2757 13.9717 33.8394 11.8684ZM34.6422 25.4863C33.8992 31.4625 29.5091 31.8381 28.6996 32.0967C28.3554 32.207 25.1553 33.0001 21.1311 32.7384C21.1311 32.7384 18.1326 36.3416 17.196 37.2785C17.0498 37.4251 16.8779 37.4842 16.7631 37.4551C16.6018 37.4158 16.5575 37.2256 16.5593 36.9476C16.562 36.5504 16.585 32.0261 16.585 32.0261C10.7253 30.4056 11.0669 24.3133 11.1333 21.1231C11.1998 17.9329 11.8014 15.3195 13.5887 13.5617C16.7999 10.6645 23.415 11.0975 23.415 11.0975C29.0014 11.1217 31.6782 12.7974 32.299 13.3587C34.36 15.1165 35.41 19.3226 34.6422 25.4846V25.4863Z" fill="#7360F2"/>
<path d="M24.0973 25.8437C24.0973 25.8437 24.6223 25.8879 24.905 25.541L25.4562 24.8503C25.722 24.5079 26.3635 24.2894 26.9918 24.6381C27.4625 24.9055 27.9196 25.1963 28.3612 25.5092C28.7781 25.8146 29.6319 26.5242 29.6345 26.5242C30.0412 26.8662 30.1352 27.3684 29.8583 27.898C29.8583 27.9011 29.8561 27.9064 29.8561 27.9091C29.5511 28.4357 29.1639 28.9106 28.709 29.3159C28.7037 29.3186 28.7037 29.3212 28.6988 29.3239C28.3036 29.6528 27.9154 29.8398 27.534 29.8848C27.4779 29.8946 27.4208 29.8981 27.3639 29.8954C27.1958 29.897 27.0285 29.8714 26.8686 29.8195L26.8562 29.8014C26.2687 29.6363 25.2878 29.2233 23.6543 28.3256C22.709 27.8123 21.8091 27.2202 20.9641 26.5556C20.5406 26.2226 20.1366 25.8658 19.7542 25.4867L19.7134 25.4461L19.6726 25.4055L19.6319 25.3649C19.6181 25.3517 19.6049 25.338 19.5911 25.3243C19.2106 24.9433 18.8523 24.5409 18.5181 24.1191C17.8509 23.2775 17.2565 22.3813 16.741 21.4399C15.8399 19.8124 15.4252 18.8362 15.2595 18.2501L15.2413 18.2378C15.1894 18.0785 15.1638 17.9119 15.1655 17.7444C15.1624 17.6877 15.1659 17.6308 15.1757 17.5749C15.2233 17.1957 15.4113 16.8087 15.7397 16.4138C15.7424 16.409 15.745 16.409 15.7477 16.4037C16.1545 15.9506 16.6313 15.5651 17.1601 15.2616C17.1628 15.2616 17.1681 15.2589 17.1712 15.2589C17.7029 14.9831 18.207 15.0767 18.55 15.4796C18.5526 15.4822 19.2637 16.3326 19.569 16.7479C19.8832 17.1882 20.1751 17.6439 20.4435 18.1133C20.7935 18.7387 20.5742 19.379 20.2304 19.6429L19.5371 20.1919C19.1871 20.4734 19.2331 20.9964 19.2331 20.9964C19.2331 20.9964 20.2601 24.868 24.0973 25.8437Z" fill="#7360F2"/>
</svg>
