<svg width="64" height="64" viewBox="0 0 64 64" fill="none" xmlns="http://www.w3.org/2000/svg">
<path d="M24.6004 45L25.2004 45.3C27.7004 46.8 30.5004 47.5 33.3004 47.5C42.1004 47.5 49.3004 40.3 49.3004 31.5C49.3004 27.3 47.6004 23.2 44.6004 20.2C41.6004 17.2 37.6004 15.5 33.3004 15.5C24.5004 15.5 17.3004 22.7 17.4004 31.6C17.4004 34.6 18.3004 37.5 19.8004 40L20.2004 40.6L18.6004 46.5L24.6004 45Z" fill="#00E676"/>
<path d="M46.4 18.4C43 14.9 38.3 13 33.5 13C23.3 13 15.1 21.3 15.2 31.4C15.2 34.6 16.1 37.7 17.6 40.5L15 50L24.7 47.5C27.4 49 30.4 49.7 33.4 49.7C43.5 49.7 51.7 41.4 51.7 31.3C51.7 26.4 49.8 21.8 46.4 18.4ZM33.5 46.6C30.8 46.6 28.1 45.9 25.8 44.5L25.2 44.2L19.4 45.7L20.9 40L20.5 39.4C16.1 32.3 18.2 22.9 25.4 18.5C32.6 14.1 41.9 16.2 46.3 23.4C50.7 30.6 48.6 39.9 41.4 44.3C39.1 45.8 36.3 46.6 33.5 46.6ZM42.3 35.5L41.2 35C41.2 35 39.6 34.3 38.6 33.8C38.5 33.8 38.4 33.7 38.3 33.7C38 33.7 37.8 33.8 37.6 33.9C37.6 33.9 37.5 34 36.1 35.6C36 35.8 35.8 35.9 35.6 35.9H35.5C35.4 35.9 35.2 35.8 35.1 35.7L34.6 35.5C33.5 35 32.5 34.4 31.7 33.6C31.5 33.4 31.2 33.2 31 33C30.3 32.3 29.6 31.5 29.1 30.6L29 30.4C28.9 30.3 28.9 30.2 28.8 30C28.8 29.8 28.8 29.6 28.9 29.5C28.9 29.5 29.3 29 29.6 28.7C29.8 28.5 29.9 28.2 30.1 28C30.3 27.7 30.4 27.3 30.3 27C30.2 26.5 29 23.8 28.7 23.2C28.5 22.9 28.3 22.8 28 22.7H27.7C27.5 22.7 27.2 22.7 26.9 22.7C26.7 22.7 26.5 22.8 26.3 22.8L26.2 22.9C26 23 25.8 23.2 25.6 23.3C25.4 23.5 25.3 23.7 25.1 23.9C24.4 24.8 24 25.9 24 27C24 27.8 24.2 28.6 24.5 29.3L24.6 29.6C25.5 31.5 26.7 33.2 28.3 34.7L28.7 35.1C29 35.4 29.3 35.6 29.5 35.9C31.6 37.7 34 39 36.7 39.7C37 39.8 37.4 39.8 37.7 39.9C38 39.9 38.4 39.9 38.7 39.9C39.2 39.9 39.8 39.7 40.2 39.5C40.5 39.3 40.7 39.3 40.9 39.1L41.1 38.9C41.3 38.7 41.5 38.6 41.7 38.4C41.9 38.2 42.1 38 42.2 37.8C42.4 37.4 42.5 36.9 42.6 36.4C42.6 36.2 42.6 35.9 42.6 35.7C42.6 35.7 42.5 35.6 42.3 35.5Z" fill="white"/>
</svg>
