<svg width="64" height="64" viewBox="0 0 64 64" fill="none" xmlns="http://www.w3.org/2000/svg">
<path d="M22.1653 35.6404C22.1653 37.593 20.5701 39.171 18.5963 39.171C16.6226 39.171 15.0273 37.593 15.0273 35.6404C15.0273 33.6879 16.6226 32.1098 18.5963 32.1098H22.1653V35.6404Z" fill="#E01E5A"/>
<path d="M23.95 35.6404C23.95 33.6879 25.5452 32.1098 27.5189 32.1098C29.4927 32.1098 31.0879 33.6879 31.0879 35.6404V44.467C31.0879 46.4196 29.4927 47.9977 27.5189 47.9977C25.5452 47.9977 23.95 46.4196 23.95 44.467V35.6404Z" fill="#E01E5A"/>
<path d="M27.5184 22.0612C25.5447 22.0612 23.9495 20.4832 23.9495 18.5306C23.9495 16.5781 25.5447 15 27.5184 15C29.4922 15 31.0874 16.5781 31.0874 18.5306V22.0612H27.5184Z" fill="#36C5F0"/>
<path d="M27.5185 23.8536C29.4922 23.8536 31.0875 25.4317 31.0875 27.3843C31.0875 29.3368 29.4922 30.9149 27.5185 30.9149H18.569C16.5952 30.9149 15 29.3368 15 27.3843C15 25.4317 16.5952 23.8536 18.569 23.8536H27.5185Z" fill="#36C5F0"/>
<path d="M41.8215 27.3818C41.8215 25.4292 43.4167 23.8512 45.3905 23.8512C47.3642 23.8512 48.9595 25.4292 48.9595 27.3818C48.9595 29.3343 47.3642 30.9124 45.3905 30.9124H41.8215V27.3818Z" fill="#2EB67D"/>
<path d="M40.0369 27.3839C40.0369 29.3365 38.4417 30.9146 36.4679 30.9146C34.4942 30.9146 32.8989 29.3365 32.8989 27.3839V18.5306C32.8989 16.5781 34.4942 15 36.4679 15C38.4417 15 40.0369 16.5781 40.0369 18.5306V27.3839Z" fill="#2EB67D"/>
<path d="M36.4681 40.9387C38.4418 40.9387 40.0371 42.5168 40.0371 44.4693C40.0371 46.4219 38.4418 48 36.4681 48C34.4944 48 32.8991 46.4219 32.8991 44.4693V40.9387H36.4681Z" fill="#ECB22E"/>
<path d="M36.4679 39.1723C34.4942 39.1723 32.8989 37.5942 32.8989 35.6417C32.8989 33.6892 34.4942 32.1111 36.4679 32.1111H45.4174C47.3911 32.1111 48.9864 33.6892 48.9864 35.6417C48.9864 37.5942 47.3911 39.1723 45.4174 39.1723H36.4679Z" fill="#ECB22E"/>
</svg>
