<svg width="64" height="64" viewBox="0 0 64 64" fill="none" xmlns="http://www.w3.org/2000/svg">
<path d="M52 31.5C52 20.7311 43.2689 12 32.5 12C21.7311 12 13 20.7311 13 31.5C13 41.2329 20.1297 49.3011 29.4531 50.7636V37.1379H24.5026V31.5H29.4531V27.2051C29.4531 22.3179 32.3635 19.6172 36.8192 19.6172C38.9521 19.6172 41.1848 19.9974 41.1848 19.9974V24.7969H38.7254C36.3025 24.7969 35.5469 26.3008 35.5469 27.8413V31.5H40.9557L40.0904 37.1379H35.5469V50.7636C44.8703 49.3011 52 41.2329 52 31.5Z" fill="url(#paint0_linear_244_230)"/>
<path d="M40.9557 31.5H35.5469V27.8413C35.5469 26.2984 36.3025 24.7969 38.7254 24.7969H41.1848V19.9974C41.1848 19.9974 38.9521 19.6172 36.8193 19.6172C32.3635 19.6172 29.4531 22.3179 29.4531 27.2051V31.5H24.5026V37.1379H29.4531V50.7636C30.4452 50.9196 31.4641 51 32.5 51C33.5359 51 34.5548 50.9196 35.5469 50.7636V37.1379H40.0904L40.9557 31.5Z" fill="white"/>
<defs>
<linearGradient id="paint0_linear_244_230" x1="32.5" y1="50.7631" x2="32.5" y2="12" gradientUnits="userSpaceOnUse">
<stop stop-color="#1569CB"/>
<stop offset="1" stop-color="#29AEF3"/>
</linearGradient>
</defs>
</svg>
