<svg width="64" height="64" viewBox="0 0 64 64" fill="none" xmlns="http://www.w3.org/2000/svg">
<mask id="mask0_244_231" style="mask-type:luminance" maskUnits="userSpaceOnUse" x="15" y="11" width="34" height="42">
<path d="M46.7164 19.2937L33.0134 11.3862C32.1245 10.8713 31.028 10.8713 30.139 11.3862L16.4337 19.2937C15.5463 19.81 15.0002 20.7591 15 21.7858V37.6125C15.0008 38.6372 15.547 39.584 16.4337 40.0976L23.2899 44.0607V52.1408C23.291 52.4483 23.4559 52.732 23.7226 52.8853C23.9892 53.0385 24.3173 53.0382 24.5837 52.8844L46.7304 40.1046C47.6181 39.5921 48.1648 38.6446 48.1641 37.6195V21.7835C48.1587 20.7551 47.6075 19.8071 46.7164 19.2937Z" fill="white"/>
</mask>
<g mask="url(#mask0_244_231)">
<path fill-rule="evenodd" clip-rule="evenodd" d="M48.1501 20.1283L31.5797 29.698L15 20.1283V39.2677L23.2899 44.0491V53.6211L48.1501 39.2677V20.1283Z" fill="#EF6C00"/>
<path fill-rule="evenodd" clip-rule="evenodd" d="M31.5797 29.698L15 20.1283L31.5797 10.5586L48.1501 20.1283L31.5797 29.698Z" fill="#FF9800"/>
<path fill-rule="evenodd" clip-rule="evenodd" d="M31.286 29.4066L15.1049 20.0654L15 20.1283L31.5797 29.698L48.1501 20.1283L47.7608 19.8975L31.286 29.4066Z" fill="#FF9800"/>
<path fill-rule="evenodd" clip-rule="evenodd" d="M31.5797 29.8169V29.698L15.1049 20.1843L15 20.2472L31.5797 29.8169Z" fill="#FF9800"/>
</g>
</svg>
