<svg width="64" height="64" viewBox="0 0 64 64" fill="none" xmlns="http://www.w3.org/2000/svg">
<path d="M30.6574 28.67C29.0902 31.2989 27.5887 33.8447 26.0559 36.3713C25.6622 37.02 25.4674 37.5484 25.7819 38.3729C26.6501 40.6507 25.4253 42.8674 23.1233 43.469C20.9524 44.0367 18.8373 42.613 18.4066 40.2938C18.0249 38.241 19.6214 36.2287 21.8896 35.9078C22.0796 35.8807 22.2737 35.8776 22.593 35.8537L26.0433 30.0806C23.8733 27.9275 22.5817 25.4107 22.8675 22.2919C23.0696 20.0873 23.9384 18.1821 25.5263 16.6207C28.5677 13.6304 33.2077 13.1462 36.7888 15.4414C40.2282 17.6461 41.8034 21.9405 40.4607 25.6161C39.4483 25.3422 38.4287 25.066 37.308 24.7627C37.7296 22.7191 37.4178 20.884 36.0365 19.3119C35.124 18.274 33.9529 17.7299 32.6214 17.5295C29.9519 17.1271 27.3311 18.8383 26.5534 21.4528C25.6706 24.4198 27.0067 26.8436 30.6574 28.67Z" fill="#C73A63"/>
<path d="M35.1333 25.5611C36.2374 27.5048 37.3586 29.4778 38.4697 31.4327C44.0857 29.6989 48.32 32.8011 49.8391 36.1223C51.674 40.1342 50.4196 44.8858 46.8162 47.361C43.1174 49.9018 38.4398 49.4677 35.1628 46.2038C35.998 45.5062 36.8373 44.8055 37.734 44.0569C40.9707 46.1487 43.8016 46.0502 45.9033 43.5732C47.6955 41.46 47.6567 38.3092 45.8125 36.2403C43.6842 33.853 40.8335 33.7802 37.3877 36.0719C35.9582 33.5414 34.504 31.0312 33.1198 28.4825C32.653 27.6235 32.1378 27.125 31.0858 26.9432C29.329 26.6393 28.1949 25.134 28.1268 23.4475C28.0599 21.7796 29.0447 20.2719 30.5839 19.6846C32.1086 19.1025 33.8978 19.5723 34.9234 20.8658C35.7615 21.9226 36.0278 23.112 35.5867 24.4154C35.4641 24.7789 35.3054 25.1304 35.1333 25.5611Z" fill="#4B4B4B"/>
<path d="M37.7723 41.45H31.0115C30.3635 44.1096 28.9638 46.2568 26.5521 47.6223C24.6771 48.6835 22.6564 49.0433 20.5057 48.6968C16.5458 48.0596 13.308 44.5025 13.0229 40.4973C12.7003 35.9599 15.8257 31.9268 19.9917 31.0209C20.2793 32.0632 20.57 33.1154 20.8576 34.1551C17.0354 36.101 15.7124 38.5527 16.7822 41.6185C17.7239 44.3164 20.3988 45.7952 23.3033 45.2233C26.2693 44.6393 27.7648 42.1796 27.5822 38.2321C30.3941 38.2321 33.2083 38.2031 36.0204 38.2464C37.1185 38.2637 37.9663 38.15 38.7935 37.184C40.1554 35.5945 42.6622 35.738 44.129 37.2392C45.628 38.7734 45.5562 41.2419 43.9699 42.7114C42.4395 44.1293 40.0215 44.0536 38.5896 42.5257C38.2954 42.2109 38.0635 41.8369 37.7723 41.45Z" fill="#4A4A4A"/>
</svg>
