<svg width="45" height="45" viewBox="0 0 45 45" fill="none" xmlns="http://www.w3.org/2000/svg">
<path d="M33.5832 20.1984C33.7508 20.0652 34 20.1898 34 20.4004V29.1875C34 30.3262 33.0762 31.25 31.9375 31.25H14.0625C12.9238 31.25 12 30.3262 12 29.1875V20.4047C12 20.1898 12.2449 20.0695 12.4168 20.2027C13.3793 20.9504 14.6555 21.9 19.0383 25.084C19.9449 25.7457 21.4746 27.1379 23 27.1293C24.534 27.1422 26.0937 25.7199 26.966 25.084C31.3488 21.9 32.6207 20.9461 33.5832 20.1984ZM23 25.75C23.9969 25.7672 25.432 24.4953 26.1539 23.9711C31.8559 19.8332 32.2898 19.4723 33.6047 18.441C33.8539 18.2477 34 17.9469 34 17.6289V16.8125C34 15.6738 33.0762 14.75 31.9375 14.75H14.0625C12.9238 14.75 12 15.6738 12 16.8125V17.6289C12 17.9469 12.1461 18.2434 12.3953 18.441C13.7102 19.468 14.1441 19.8332 19.8461 23.9711C20.568 24.4953 22.0031 25.7672 23 25.75Z" fill="#0084FF"/>
</svg>
