<svg width="64" height="64" viewBox="0 0 64 64" fill="none" xmlns="http://www.w3.org/2000/svg">
<path d="M47.2879 39.7277C47.2595 39.8217 44.6587 50.0072 34.4189 50C25.5719 50 21.3794 42.1711 21.3794 42.1711C20.7327 42.2072 20.1145 42.106 19.5389 41.8892C16.9452 40.9205 15.6945 37.8988 16.5899 35.3614L15.1616 34.2554C9.64022 29.9759 25.2948 10.3783 30.8304 14.8096C30.8588 14.8313 32.1521 15.894 32.1521 15.894C34.1418 14.6651 36.1101 14 37.709 14C38.8459 14 39.7982 14.3325 40.4377 15.041C41.8731 16.6241 41.3615 19.6458 39.3931 22.7036C39.8124 23.1084 40.1677 23.6651 40.4164 24.2145C41.0417 24.706 41.4468 25.4506 41.6457 26.4771C41.866 27.6193 41.9157 29.2458 42.0579 29.947C42.5837 30.1928 42.3634 30.0771 42.9248 30.3663C43.5146 30.6626 44.2323 31.0313 45.0211 31.8048C46.4281 32.1663 46.9681 33.6843 46.1438 34.7253C46.1225 34.7542 46.023 34.8699 45.9164 34.9928C45.9378 35.0578 46.2078 35.506 46.4068 36.4096C46.9894 36.547 47.4513 36.9157 47.7 37.4434C48.1193 38.4771 47.2879 39.7277 47.2879 39.7277Z" fill="#684C46"/>
<path d="M23.4685 35.8883C23.6888 35.31 23.8025 34.8401 23.8025 34.8401C24.0583 35.6353 24.1863 36.4667 24.1365 37.3124C24.3497 37.0233 24.5771 36.4883 24.5771 36.4883C24.9679 38.845 23.2767 40.9992 21.0525 40.9992C19.077 40.9992 17.4711 39.2859 17.4711 37.1679C17.4711 35.0498 19.077 33.3365 21.0525 33.3365C21.5641 33.3365 22.0544 33.4522 22.495 33.6618C22.495 33.6546 23.2554 34.045 23.4685 35.8883ZM42.9532 44.2016C45.7317 41.9823 46.2149 39.3076 46.2575 39.2209C46.9397 38.3895 46.755 37.5654 45.8525 37.5654C45.5683 37.5654 45.348 37.645 45.348 37.645C45.348 37.645 45.348 36.4305 44.8008 35.4835C44.3744 35.9679 43.1948 36.9365 41.6386 37.6883C40.1819 38.3895 38.242 39.004 35.833 39.0908C35.1579 39.1197 34.7387 39.0112 34.5042 39.8064C34.426 40.0883 34.4616 40.5076 34.5184 40.6305C34.7103 41.2956 35.2077 41.5847 35.8543 41.7365C36.3518 41.8522 36.8776 41.8667 36.8776 41.8667C41.7594 42.004 45.682 38.1293 45.7246 38.1004C45.7672 38.0642 45.8099 38.0209 45.8099 38.0209C45.8099 38.0209 45.7672 38.1221 45.7601 38.1365C45.0566 39.7486 40.9707 42.6763 36.906 42.5895L36.8918 42.5968C35.9467 42.5895 34.8026 42.3438 34.2057 41.592C33.2606 40.4064 33.751 38.4257 35.2503 38.3823C35.2503 38.3823 35.5985 38.3751 35.7477 38.3679C39.4642 38.2522 42.7969 36.8642 45.1916 33.9582C45.5185 33.5462 45.1561 32.9751 44.4384 32.9534C44.4313 32.9534 44.4242 32.9534 44.4242 32.9462C43.5786 32.0281 42.8395 31.7028 42.1787 31.363C40.793 30.6474 40.928 31.2618 40.6012 27.7847C40.5159 26.845 40.3382 25.5655 39.5281 25.0811C39.315 24.951 39.0805 24.9004 38.846 24.9004C38.6115 24.9004 38.4907 24.951 38.448 24.9582C38.0075 25.0594 37.7516 25.3124 37.439 25.6088C35.9467 27.0112 34.7529 26.6281 32.9693 26.6136C31.2994 26.5992 29.8213 27.7847 29.5371 29.6064C29.4021 30.5606 29.4873 31.5293 29.6366 31.963C29.6366 31.963 29.1818 31.6594 28.9686 31.3847C29.2315 33.0474 30.7238 34.1389 30.7238 34.1389C30.4893 34.1968 30.1482 34.1679 30.1482 34.1679C30.1482 34.1679 31.0009 34.8546 31.74 35.0932C31.5481 35.2161 30.5746 36.192 30.07 37.5365C29.601 38.7944 29.7929 40.3052 29.7929 40.3052L30.1979 39.6835C30.1979 39.6835 29.935 41.0642 30.4467 42.3944C30.6172 41.9968 30.9938 41.2883 30.9938 41.2883C30.9938 41.2883 30.937 42.7703 31.6334 43.9847C31.6547 43.7028 31.7542 42.9944 31.7542 42.9944C31.7542 42.9944 32.1592 44.2594 33.083 45.1414C34.8453 46.7173 39.4429 47.0064 42.9532 44.2016Z" fill="#F5DCBA"/>
<path d="M17.1298 34.2834C17.1156 34.2762 15.7797 33.2858 15.5949 32.9533C14.4722 31.0304 16.4263 27.069 17.812 24.8208C21.2442 19.2762 26.9574 14.8882 29.5511 15.5171L32.2159 16.9196C31.1784 17.5412 30.1836 18.3003 29.5795 18.8063L29.0111 19.2906C29.0111 19.2906 27.3554 20.4256 26.5311 21.1412C23.2268 24.0039 19.9793 28.4424 18.7713 32.722C18.7784 32.7147 17.7836 33.2135 17.1298 34.2834Z" fill="#0788BF"/>
<path d="M29.5512 15.5171C26.9575 14.8882 21.2442 19.2762 17.812 24.828C17.812 24.828 17.812 24.828 17.812 24.8352H17.8262L20.562 27.0256C23.5679 22.175 27.3412 19.6738 27.4478 19.6015L27.0143 16.6304L27.8244 16.2328L29.4517 16.7677L29.3238 16.2111L29.5512 15.5171Z" fill="#46B8E3"/>
<path d="M32.2161 16.9134L29.5797 18.8002L29.395 18.9448L27.0571 17.0002L27.0002 16.6315L27.8103 16.2339C27.853 16.2484 29.3737 16.7472 29.4376 16.7689L29.466 15.7423L29.5442 15.511L30.2548 15.2363C30.2619 15.2363 32.209 16.9134 32.2161 16.9134Z" fill="#FFD14F"/>
<path d="M37.4104 15.0625C35.6695 15.0625 33.7153 15.995 32.2088 16.9131C31.9957 17.036 31.7896 17.1733 31.5835 17.3035L30.8018 16.6312L31.0861 17.636C30.9795 17.7083 30.8729 17.7878 30.7734 17.8601L29.1533 17.3541L30.2263 18.2649C29.9847 18.4529 29.7644 18.6336 29.5796 18.7854L27.0072 16.624L27.1422 17.5926L29.0111 19.2697C29.0111 19.2697 27.3554 20.4047 26.5311 21.1203C23.2268 23.983 19.9794 28.4215 18.7714 32.7011L18.8424 32.6649C18.8495 32.6577 18.8637 32.6577 18.8709 32.6504C18.9064 32.6288 18.9348 32.6143 18.9703 32.5998C18.9917 32.5854 19.013 32.5782 19.0343 32.5637C19.0698 32.5492 19.1054 32.5348 19.1409 32.5131C19.1622 32.5059 19.1835 32.4914 19.2048 32.4842C19.2404 32.4697 19.283 32.4553 19.3185 32.4408C19.3327 32.4336 19.3541 32.4264 19.3683 32.4191C19.4251 32.3974 19.4749 32.383 19.5317 32.3613C20.3489 32.1155 21.4645 31.9492 22.7721 32.5131C23.4258 30.8288 24.2075 29.1227 25.4439 27.4745C26.4459 26.1444 27.4052 24.9517 28.5635 24.2938C30.7521 22.2047 36.643 19.9926 38.5261 21.9083C38.9738 21.1637 39.3575 20.4625 39.6773 19.5806C40.4589 17.4914 40.4731 15.0625 37.4104 15.0625Z" fill="#122030"/>
<path d="M29.935 16.9364L29.5512 15.5195L29.3239 16.228L29.4589 16.7846L29.935 16.9364Z" fill="#122030"/>
<path d="M45.3477 37.6388C45.3477 37.6388 45.3477 36.4243 44.8006 35.4773C44.3742 35.9617 43.1946 36.9303 41.6384 37.6822C40.1817 38.3834 38.2417 38.9978 35.8328 39.0846C35.1577 39.1135 34.7385 39.005 34.504 39.8002C34.4826 39.8725 34.4755 39.9448 34.4684 40.0243V40.0316C34.4684 40.0605 34.4613 40.0822 34.4613 40.1111C34.4613 40.1834 34.4613 40.2484 34.4613 40.3063C34.4613 40.3063 34.4613 40.3063 34.4613 40.3135C34.4613 40.3207 34.4613 40.3207 34.4613 40.3279C34.4613 40.3641 34.4684 40.4002 34.4684 40.4291C34.4684 40.4291 34.4684 40.4291 34.4684 40.4364C34.4684 40.4364 34.4684 40.4364 34.4684 40.4436C34.4826 40.5737 34.5111 40.6316 34.5111 40.6388V40.646C34.7029 41.3038 35.2003 41.593 35.847 41.7448C36.3444 41.8605 36.8703 41.8749 36.8703 41.8749C40.8567 41.9906 44.1966 39.4316 45.3193 38.4701C45.3477 38.1809 45.3548 37.993 45.3477 37.6388ZM33.907 15.9954C34.8593 15.5472 35.8754 15.193 36.856 15.0918C35.8825 15.3159 34.7029 15.8291 33.2959 16.6966C33.2604 16.7183 29.9774 18.9737 27.9664 20.9978C26.8721 22.1038 22.4806 27.4605 22.4877 27.4532C23.2907 25.9063 23.8165 25.1472 25.0885 23.5207C25.8062 22.6026 26.5736 21.7062 27.3624 20.8822C27.6253 20.6075 27.8954 20.3328 28.1583 20.0725C28.2578 19.9858 30.553 17.593 33.907 15.9954Z" fill="white"/>
<path d="M42.9532 44.2022C42.4771 44.5853 41.9797 44.9034 41.4752 45.1781C40.3027 44.7226 39.585 43.7612 39.585 43.7612C39.585 43.7612 40.594 43.5226 41.9371 42.8214C43.5714 41.9757 45.0992 40.754 46.2646 39.2214C46.2078 39.3154 45.7246 41.9829 42.9532 44.2022ZM39.7555 31.3202C39.187 30.9082 38.249 31.2335 38.043 31.913C38.3698 31.9275 38.718 32.1805 38.6967 32.5058C38.9312 32.2745 39.2581 32.1516 39.5779 32.1516C39.4286 31.9058 39.5068 31.472 39.7555 31.3202ZM33.8078 39.6118C33.9854 38.9323 34.4899 38.3973 35.2645 38.3757C35.2645 38.3757 35.6127 38.3684 35.7619 38.3612C39.4784 38.2455 42.8111 36.8576 45.2058 33.9516C45.5327 33.5395 45.1703 32.9684 44.4526 32.9467H44.4455C44.3247 33.0769 44.3034 33.3154 44.1044 33.6696C43.3796 34.9564 42.3705 35.5419 41.0346 36.2214C36.9273 38.3034 34.7955 37.3347 33.9428 38.607C33.6941 38.9829 33.687 39.4022 33.8078 39.6118ZM41.2407 30.8865C40.8498 30.5973 40.8356 30.0986 40.6224 27.7853C40.5514 27.0479 40.4306 26.101 39.99 25.4865C39.8976 25.407 39.7697 25.313 39.585 25.313C39.3078 25.2986 38.9881 25.5949 38.8104 25.7973C38.2988 26.5492 37.8156 27.0263 36.9486 27.4455C36.0746 27.8504 35.2503 27.9949 34.3834 27.966C33.7509 27.9443 33.2038 27.8431 32.6637 27.8359C31.6618 27.8214 30.7948 28.154 30.1624 28.9636C29.7289 29.5202 29.5513 30.113 29.5015 30.8142C29.5015 30.901 29.5086 30.9805 29.5086 31.0528C29.5157 31.1612 29.5228 31.2696 29.5371 31.3708C29.5797 31.7251 29.6436 31.913 29.6436 31.913V31.9202C29.6508 31.9347 29.6508 31.9564 29.6579 31.9708C29.6579 31.9708 29.2031 31.6672 28.9899 31.3925C29.2102 32.7805 30.2832 33.7708 30.6314 34.06C30.6527 34.0745 30.674 34.0889 30.6953 34.1106C30.6953 34.1106 30.6953 34.1106 30.7024 34.1178C30.7309 34.1395 30.7451 34.154 30.7451 34.154C30.5106 34.2118 30.1695 34.1829 30.1695 34.1829C30.1695 34.1829 31.0222 34.8696 31.7612 35.1082C32.7419 34.2624 33.8504 33.9443 34.7671 33.8431C35.3214 33.4961 35.9112 33.1492 36.5507 32.8239C36.3588 31.6022 37.4247 30.366 38.7678 30.2504C39.7839 30.1781 40.2742 30.6407 40.6295 31.1323C40.8214 31.0672 41.0417 31.0022 41.2833 30.9299C41.2549 30.9082 41.2478 30.8937 41.2407 30.8865ZM41.7239 39.1275C41.7168 39.1275 41.7026 39.1275 41.6883 39.1347C41.2833 39.2287 37.1121 40.8769 34.4686 40.0311C34.4544 40.1757 34.4615 40.4865 34.5184 40.6238C34.9163 40.7034 35.4208 40.754 36.0106 40.754C39.4855 40.7612 41.9868 39.1492 41.7239 39.1275ZM22.296 38.8022C22.5092 38.5708 22.6016 38.2455 22.5518 37.9347C22.4737 37.4937 21.9762 37.3998 21.6494 37.0528C21.6423 37.0455 21.6423 37.0383 21.6352 37.0383C21.6281 37.0311 21.6209 37.0239 21.6209 37.0166C21.4717 36.8431 21.422 36.6479 21.4362 36.4745C21.4646 36.019 21.8626 35.8889 22.0686 35.9757C22.0686 35.9757 22.3102 36.0335 22.5021 36.301C22.4737 36.2142 22.4808 36.0696 22.3315 35.8528C22.0899 35.4985 21.5286 35.1443 20.7398 35.3178C20.5906 35.3467 20.6758 35.3323 20.5337 35.3757C20.5124 35.3829 20.4911 35.3901 20.4698 35.3973C20.4271 35.419 20.3845 35.4335 20.3419 35.4552C20.3205 35.4696 20.1997 35.5202 20.0576 35.6287C19.1552 36.7998 20.6687 38.9251 22.296 38.8022Z" fill="#EABE8D"/>
<path d="M35.4281 31.6036C35.5062 31.712 35.5204 31.7987 35.492 31.8349C35.4281 31.9072 35.2149 31.8132 34.8951 31.6831C34.0779 31.3722 33.4739 31.3289 32.408 31.7337C32.138 31.8349 31.9461 31.9216 31.8537 31.9072C31.7045 31.8855 31.8466 31.6036 32.1735 31.3361C32.8344 30.8011 33.7368 30.6349 34.5043 30.9313C34.8525 31.0542 35.2362 31.3072 35.4281 31.6036ZM35.2717 32.4566C35.0443 32.2831 34.6322 32.1674 34.2058 32.2397C34.1135 32.2542 34.0353 32.2831 33.95 32.3048C33.9216 32.312 33.8932 32.3264 33.8647 32.3337C33.6871 32.4132 33.5308 32.4927 33.3886 32.6373C33.2181 32.8036 33.1684 32.9626 33.2181 32.9987C33.2678 33.0349 33.3815 32.977 33.5663 32.9048C34.1774 32.6445 34.6109 32.6373 35.023 32.6662C35.222 32.6807 35.357 32.6951 35.3854 32.6373C35.4067 32.6011 35.3641 32.5289 35.2717 32.4566ZM22.0901 35.6445C22.1896 35.724 22.2677 35.8108 22.3246 35.8975C22.5093 36.1722 22.4525 36.324 22.5307 36.4036C22.5591 36.4325 22.6017 36.4397 22.6372 36.4252C22.7438 36.3819 22.7936 36.2084 22.8078 36.0855C22.8362 35.7963 22.687 35.471 22.488 35.2397C22.3672 35.0951 22.2038 34.9578 22.0119 34.8493C21.82 34.7409 21.5998 34.6614 21.3511 34.618C20.9318 34.5529 20.5125 34.6397 20.3988 34.6686C20.342 34.6831 20.2638 34.7048 20.1999 34.7264C19.5106 35.0011 19.0558 35.4999 18.8568 36.165C18.7858 36.418 18.7502 36.6638 18.7502 36.8879C18.7502 37.0831 18.7716 37.2638 18.8071 37.4228C18.8639 37.6903 18.9847 38.0011 19.1695 38.1963C19.404 38.4493 19.6598 38.406 19.5461 38.1674C19.5177 38.1023 19.3827 37.8349 19.3614 37.3433C19.3472 37.0252 19.3898 36.6927 19.5106 36.3891C19.5745 36.2228 19.6598 36.0638 19.7735 35.9192C20.008 35.6301 20.2923 35.4999 20.3278 35.4783C20.3704 35.4566 20.4131 35.4421 20.4557 35.4204C20.4699 35.4132 20.4912 35.406 20.5196 35.3987C20.6618 35.3554 20.5836 35.377 20.7257 35.3409C21.28 35.2397 21.7561 35.3698 22.0901 35.6445ZM21.9693 36.7289C21.8911 36.671 21.8556 36.6132 21.8343 36.5337C21.8058 36.3891 21.82 36.3023 21.9409 36.2156C22.0332 36.1505 22.1114 36.1144 22.1114 36.0782C22.1185 35.9987 21.7987 35.9192 21.5784 36.1433C21.3937 36.3457 21.3368 36.7578 21.6282 37.0831C21.9551 37.4445 22.4667 37.524 22.5449 37.9795C22.552 38.0445 22.5662 38.1168 22.5591 38.1819C22.5591 38.2614 22.5307 38.377 22.5307 38.3843C22.4312 38.818 22.0261 39.2373 21.3511 39.1289C21.2302 39.1072 21.145 39.0927 21.1237 39.1289C21.0739 39.2011 21.3582 39.5337 21.884 39.5264C22.4027 39.512 22.9144 39.1216 23.0778 38.5361C23.0778 38.5289 23.1276 38.3626 23.1347 38.2108C23.1418 38.1023 23.1347 37.9867 23.1133 37.8638C22.9854 37.1048 22.2464 36.9529 21.9693 36.7289ZM39.9333 31.3216C39.7272 31.2927 39.5282 31.4951 39.4856 31.777C39.443 32.059 39.5709 32.3192 39.7769 32.3481C39.983 32.377 40.182 32.1746 40.2246 31.8927C40.2673 31.6108 40.1394 31.3505 39.9333 31.3216ZM37.6949 32.1457C37.5812 32.3554 37.7162 32.6517 38.0004 32.8036C38.2776 32.9626 38.5973 32.9192 38.711 32.7096C38.8247 32.4999 38.6897 32.2036 38.4055 32.0517C38.1284 31.8999 37.8086 31.9433 37.6949 32.1457ZM29.4945 23.7385C33.346 21.1939 37.1975 20.9048 38.5192 21.9385C38.5192 21.9313 38.4979 21.8734 38.4908 21.859C38.1568 21.1361 37.3751 20.6301 36.6787 20.4277C36.7995 20.5578 36.9772 20.7963 37.0482 20.9337C36.5224 20.565 35.826 20.2397 35.0941 20.0879C35.0941 20.0879 35.1794 20.153 35.1936 20.1674C35.3357 20.3048 35.5347 20.5216 35.6128 20.7096C34.9164 20.4277 34.0353 20.2686 33.282 20.4132C33.2749 20.4132 33.1897 20.4349 33.1897 20.4349C33.1897 20.4349 33.2892 20.4566 33.3105 20.4638C33.5592 20.5361 33.9145 20.6951 34.0708 20.9048C32.8202 20.6807 31.4416 20.9264 30.7026 21.353C30.7949 21.3457 30.7949 21.3457 30.8802 21.353C31.1502 21.3602 31.7045 21.3963 31.9319 21.5481C31.1431 21.7144 29.9991 22.0686 29.388 22.6108C29.4945 22.5963 30.1128 22.5168 30.3615 22.5602C26.979 24.5264 25.437 27.5048 25.437 27.5048C26.439 26.1746 27.7323 24.9023 29.4945 23.7385Z" fill="#9C7356"/>
<path d="M38.5899 29.293C38.5828 29.0255 38.6255 28.5773 38.8742 28.4905C39.3005 28.3387 39.869 29.452 39.8903 30.4423C39.5493 30.2689 39.1584 30.1966 38.7463 30.2327C38.6539 29.9219 38.6042 29.6183 38.5899 29.293Z" fill="#684C46"/>
</svg>
