<svg width="64" height="64" viewBox="0 0 64 64" fill="none" xmlns="http://www.w3.org/2000/svg">
<path d="M49 21C47 21 25.8252 21 14 21C13 21 12 22.0005 12 23.0009C12 29.0159 12 41.0093 12 43.0103C12 45.0112 13 46.0117 15 46.0117C26.1558 46.0117 47 46.0117 49 46.0117C51 46.0117 52 45.0112 52 43.0103C52 41.0093 52 30.6475 52 24.0014C52 22.0005 51 21 49 21Z" fill="#4186CD"/>
<path d="M48.1946 33.7308C48.1946 31.4275 47.079 29.6101 44.9467 29.6101C42.8054 29.6101 41.5098 31.4275 41.5098 33.7128C41.5098 36.4209 43.0393 37.7884 45.2346 37.7884C46.3053 37.7884 47.115 37.5455 47.7268 37.2036V35.4042C47.115 35.7101 46.4132 35.8991 45.5225 35.8991C44.6498 35.8991 43.876 35.5932 43.7771 34.5315H48.1766C48.1766 34.4145 48.1946 33.9467 48.1946 33.7308ZM43.7501 32.8761C43.7501 31.8594 44.3709 31.4365 44.9377 31.4365C45.4865 31.4365 46.0713 31.8594 46.0713 32.8761H43.7501Z" fill="white"/>
<path d="M38.037 29.6101C37.1553 29.6101 36.5885 30.024 36.2736 30.3119L36.1567 29.7541H34.1773V40.2446L36.4266 39.7678L36.4356 37.2216C36.7595 37.4555 37.2363 37.7884 38.028 37.7884C39.6385 37.7884 41.105 36.4929 41.105 33.6408C41.096 31.0317 39.6115 29.6101 38.037 29.6101ZM37.4972 35.8091C36.9664 35.8091 36.6515 35.6201 36.4356 35.3862L36.4266 32.0483C36.6605 31.7874 36.9844 31.6075 37.4972 31.6075C38.3159 31.6075 38.8828 32.5252 38.8828 33.7038C38.8828 34.9094 38.3249 35.8091 37.4972 35.8091Z" fill="white"/>
<path d="M31.0823 27.2439V29.0793L33.3406 28.5935V26.7671L31.0823 27.2439Z" fill="white"/>
<path d="M33.3406 29.7631H31.0823V37.6355H33.3406V29.7631Z" fill="white"/>
<path d="M28.6621 30.4289L28.5181 29.7631H26.5748V37.6355H28.824V32.3002C29.3549 31.6075 30.2546 31.7334 30.5335 31.8324V29.7631C30.2456 29.6551 29.1929 29.4572 28.6621 30.4289Z" fill="white"/>
<path d="M24.1635 27.8107L21.9683 28.2786L21.9593 35.4852C21.9593 36.8168 22.9579 37.7975 24.2895 37.7975C25.0273 37.7975 25.5671 37.6625 25.864 37.5006V35.6742C25.5761 35.7911 24.1545 36.205 24.1545 34.8734V31.6795H25.864V29.7631H24.1545L24.1635 27.8107Z" fill="white"/>
<path d="M18.0816 32.0483C18.0816 31.6974 18.3695 31.5625 18.8463 31.5625C19.5301 31.5625 20.3938 31.7694 21.0776 32.1383V30.024C20.3308 29.7271 19.5931 29.6101 18.8463 29.6101C17.0199 29.6101 15.8053 30.5638 15.8053 32.1563C15.8053 34.6395 19.2242 34.2436 19.2242 35.3142C19.2242 35.7281 18.8643 35.8631 18.3605 35.8631C17.6137 35.8631 16.66 35.5572 15.9043 35.1433V37.2846C16.741 37.6445 17.5867 37.7974 18.3605 37.7974C20.2319 37.7974 21.5185 36.8707 21.5185 35.2603C21.5095 32.5791 18.0816 33.056 18.0816 32.0483Z" fill="white"/>
</svg>
