<svg width="45" height="45" viewBox="0 0 45 45" fill="none" xmlns="http://www.w3.org/2000/svg">
<path d="M23 10C20.4288 10 17.9154 10.7624 15.7776 12.1909C13.6398 13.6194 11.9735 15.6497 10.9896 18.0251C10.0056 20.4006 9.74819 23.0144 10.2498 25.5362C10.7514 28.0579 11.9895 30.3743 13.8076 32.1924C15.6257 34.0105 17.9421 35.2486 20.4638 35.7502C22.9856 36.2518 25.5994 35.9944 27.9749 35.0104C30.3503 34.0265 32.3806 32.3602 33.8091 30.2224C35.2376 28.0846 36 25.5712 36 23C35.9986 19.5526 34.6285 16.2468 32.1909 13.8091C29.7532 11.3715 26.4474 10.0014 23 10ZM23 32.5652C21.1082 32.5652 19.2588 32.0042 17.6859 30.9532C16.1129 29.9021 14.8869 28.4083 14.1629 26.6604C13.4389 24.9126 13.2495 22.9894 13.6186 21.1339C13.9877 19.2784 14.8987 17.5741 16.2364 16.2364C17.5741 14.8986 19.2785 13.9877 21.1339 13.6186C22.9894 13.2495 24.9126 13.4389 26.6605 14.1629C28.4083 14.8869 29.9021 16.1129 30.9532 17.6858C32.0042 19.2588 32.5652 21.1082 32.5652 23C32.5683 24.257 32.323 25.5022 31.8434 26.6641C31.3638 27.826 30.6594 28.8817 29.7705 29.7705C28.8817 30.6594 27.826 31.3638 26.6641 31.8434C25.5022 32.323 24.257 32.5683 23 32.5652Z" fill="#F12E45"/>
<path d="M26.2244 22.48C27.7179 22.48 28.9287 21.2692 28.9287 19.7756C28.9287 18.2821 27.7179 17.0713 26.2244 17.0713C24.7308 17.0713 23.52 18.2821 23.52 19.7756C23.52 21.2692 24.7308 22.48 26.2244 22.48Z" fill="#F12E45"/>
<path d="M26.2244 28.9287C27.7179 28.9287 28.9287 27.7179 28.9287 26.2244C28.9287 24.7308 27.7179 23.52 26.2244 23.52C24.7308 23.52 23.52 24.7308 23.52 26.2244C23.52 27.7179 24.7308 28.9287 26.2244 28.9287Z" fill="#F12E45"/>
<path d="M19.7756 28.9287C21.2692 28.9287 22.48 27.7179 22.48 26.2244C22.48 24.7308 21.2692 23.52 19.7756 23.52C18.2821 23.52 17.0713 24.7308 17.0713 26.2244C17.0713 27.7179 18.2821 28.9287 19.7756 28.9287Z" fill="#F12E45"/>
<path d="M19.7756 22.48C21.2692 22.48 22.48 21.2692 22.48 19.7756C22.48 18.2821 21.2692 17.0713 19.7756 17.0713C18.2821 17.0713 17.0713 18.2821 17.0713 19.7756C17.0713 21.2692 18.2821 22.48 19.7756 22.48Z" fill="#F12E45"/>
</svg>
