<svg width="64" height="64" viewBox="0 0 64 64" fill="none" xmlns="http://www.w3.org/2000/svg">
<path d="M45.6899 26.2459C44.7469 23.2889 42.8932 20.7058 40.3939 18.8657C37.8946 17.0255 34.8775 16.0226 31.7739 16.0002C29.15 15.9852 26.5715 16.6854 24.3155 18.0256C22.0596 19.3658 20.2114 21.2954 18.9696 23.607C16.6874 24.016 14.5953 25.1427 12.9977 26.8231C11.4002 28.5034 10.3806 30.6498 10.0874 32.9498C9.79425 35.2498 10.2427 37.5833 11.3676 39.6107C12.4925 41.6382 14.2351 43.2537 16.3417 44.2221L16.6151 44.346H16.6333V41.2479C15.1882 40.3609 14.0568 39.0438 13.3978 37.4814C12.7388 35.9189 12.5852 34.1895 12.9586 32.5354C13.3319 30.8813 14.2135 29.3854 15.4797 28.2576C16.7459 27.1297 18.3333 26.4262 20.0193 26.2459L20.7848 26.1657L21.1201 25.4768C22.0722 23.459 23.5805 21.755 25.4678 20.5651C27.3551 19.3751 29.5428 18.7487 31.7739 18.7594C34.4324 18.7781 37.0082 19.6852 39.0919 21.3362C41.1756 22.9873 42.6474 25.2877 43.2733 27.8715L43.5358 28.9139H44.6292C46.392 28.95 48.0706 29.674 49.3069 30.9312C50.5429 32.1884 51.2383 33.8792 51.2445 35.6422C51.2445 38.2118 49.7611 40.3149 47.2352 41.3792V44.3169L47.4174 44.2586C51.4778 42.9282 54 39.626 54 35.6422C53.9832 33.3364 53.1325 31.1147 51.605 29.3874C50.0774 27.6602 47.9762 26.5443 45.6899 26.2459Z" fill="#3448C5"/>
<path d="M26.4306 43.9889L27.0356 44.5939C27.052 44.6107 27.0631 44.6319 27.0675 44.655C27.0719 44.678 27.0696 44.7018 27.0606 44.7235C27.0518 44.7452 27.0367 44.7638 27.0174 44.777C26.998 44.7903 26.9752 44.7975 26.9518 44.798H22.1771C21.5971 44.798 21.0408 44.5676 20.6307 44.1575C20.2206 43.7474 19.9902 43.1911 19.9902 42.6111V33.3387C19.9902 33.3068 19.9775 33.2762 19.9549 33.2536C19.9324 33.2311 19.9018 33.2184 19.8699 33.2184H18.8494C18.8256 33.2187 18.8023 33.2119 18.7824 33.1989C18.7625 33.1859 18.7469 33.1673 18.7376 33.1455C18.7282 33.1237 18.7255 33.0996 18.7298 33.0762C18.7342 33.0529 18.7453 33.0313 18.7619 33.0143L22.8149 28.9612C22.8261 28.9499 22.8395 28.9409 22.8541 28.9347C22.8688 28.9286 22.8846 28.9254 22.9006 28.9254C22.9165 28.9254 22.9323 28.9286 22.947 28.9347C22.9617 28.9409 22.975 28.9499 22.9862 28.9612L27.0356 33.0143C27.052 33.0311 27.0631 33.0523 27.0675 33.0753C27.0719 33.0983 27.0696 33.1222 27.0606 33.1439C27.0518 33.1656 27.0367 33.1841 27.0174 33.1974C26.998 33.2106 26.9752 33.2179 26.9518 33.2184H25.9167C25.8844 33.2184 25.8534 33.2309 25.8303 33.2534C25.8072 33.2759 25.7937 33.3065 25.7928 33.3387V42.4508C25.7942 43.0275 26.0235 43.5804 26.4306 43.9889Z" fill="#3448C5"/>
<path d="M35.3859 43.9889L35.9946 44.5939C36.0112 44.6109 36.0223 44.6325 36.0267 44.6558C36.031 44.6792 36.0283 44.7033 36.0189 44.7251C36.0096 44.747 35.994 44.7655 35.9741 44.7785C35.9542 44.7915 35.9309 44.7982 35.9072 44.798H31.1434C30.5634 44.798 30.0071 44.5676 29.597 44.1575C29.1869 43.7474 28.9565 43.1911 28.9565 42.6111V35.6823C28.9565 35.65 28.9439 35.6191 28.9215 35.5959C28.899 35.5728 28.8684 35.5593 28.8362 35.5584H27.8047C27.7813 35.5579 27.7585 35.5506 27.7391 35.5373C27.7198 35.5241 27.7048 35.5055 27.6958 35.4838C27.6869 35.4621 27.6846 35.4383 27.689 35.4153C27.6935 35.3923 27.7045 35.3711 27.7209 35.3543L31.7703 31.3085C31.7815 31.2971 31.7948 31.2881 31.8095 31.282C31.8242 31.2758 31.84 31.2726 31.8559 31.2726C31.8719 31.2726 31.8876 31.2758 31.9024 31.282C31.9171 31.2881 31.9304 31.2971 31.9416 31.3085L35.9946 35.347C36.0112 35.364 36.0223 35.3855 36.0267 35.4089C36.031 35.4322 36.0283 35.4564 36.0189 35.4782C36.0096 35.5 35.994 35.5186 35.9741 35.5316C35.9542 35.5445 35.9309 35.5513 35.9072 35.5511H34.872C34.8398 35.552 34.8092 35.5655 34.7867 35.5886C34.7643 35.6118 34.7517 35.6428 34.7517 35.675V42.4507C34.7523 43.027 34.9802 43.5797 35.3859 43.9889Z" fill="#3448C5"/>
<path d="M44.3449 43.9889L44.95 44.5939C44.9663 44.6107 44.9774 44.6319 44.9818 44.655C44.9863 44.678 44.9839 44.7018 44.975 44.7234C44.9661 44.7451 44.9511 44.7638 44.9317 44.777C44.9124 44.7903 44.8896 44.7975 44.8662 44.798H40.0878C39.5078 44.798 38.9515 44.5676 38.5414 44.1575C38.1313 43.7474 37.9009 43.1911 37.9009 42.6111V38.0077C37.9009 37.9758 37.8882 37.9452 37.8657 37.9227C37.8431 37.9001 37.8125 37.8874 37.7806 37.8874H36.7601C36.7359 37.8877 36.7122 37.8806 36.692 37.8672C36.6719 37.8538 36.6563 37.8346 36.6472 37.8122C36.6382 37.7897 36.6361 37.7651 36.6413 37.7414C36.6464 37.7178 36.6586 37.6963 36.6762 37.6797L40.7293 33.6303C40.7402 33.619 40.7532 33.6101 40.7676 33.604C40.782 33.5979 40.7975 33.5947 40.8131 33.5947C40.8287 33.5947 40.8442 33.5979 40.8586 33.604C40.873 33.6101 40.8861 33.619 40.8969 33.6303L44.95 37.6797C44.9676 37.6963 44.9798 37.7178 44.9849 37.7414C44.9901 37.7651 44.988 37.7897 44.979 37.8122C44.9699 37.8346 44.9543 37.8538 44.9342 37.8672C44.914 37.8806 44.8904 37.8877 44.8662 37.8874H43.8274C43.7955 37.8874 43.7649 37.9001 43.7423 37.9227C43.7198 37.9452 43.7071 37.9758 43.7071 38.0077V42.4507C43.7086 43.0275 43.9378 43.5803 44.3449 43.9889Z" fill="#3448C5"/>
</svg>
