<svg width="64" height="64" viewBox="0 0 64 64" fill="none" xmlns="http://www.w3.org/2000/svg">
<path d="M31.5 13C21.0799 13 13 20.6359 13 30.945C13 36.3378 15.2107 40.9998 18.809 44.2188C19.1096 44.487 19.2946 44.8662 19.3039 45.2732L19.4056 48.5663C19.438 49.6161 20.5202 50.3006 21.4822 49.8751L25.1545 48.2564C25.4644 48.1176 25.8159 48.0945 26.1443 48.1824C27.8324 48.6449 29.6269 48.8946 31.5 48.8946C41.9201 48.8946 50 41.2588 50 30.9496C50 20.6405 41.9201 13 31.5 13Z" fill="url(#paint0_radial_244_210)"/>
<path d="M20.3908 36.1944L25.8251 27.5734C26.69 26.1997 28.54 25.8621 29.8396 26.8334L34.164 30.0755C34.5618 30.3715 35.1075 30.3715 35.5006 30.0709L41.3374 25.6401C42.1144 25.0481 43.1319 25.9824 42.6139 26.8102L37.1749 35.4266C36.31 36.8002 34.46 37.1379 33.1604 36.1666L28.836 32.9245C28.4383 32.6285 27.8925 32.6285 27.4994 32.9291L21.6626 37.3599C20.8856 37.9519 19.8681 37.0222 20.3908 36.1944Z" fill="white"/>
<defs>
<radialGradient id="paint0_radial_244_210" cx="0" cy="0" r="1" gradientUnits="userSpaceOnUse" gradientTransform="translate(20.1225 49.7985) scale(40.3152 40.3151)">
<stop stop-color="#0099FF"/>
<stop offset="0.6098" stop-color="#A033FF"/>
<stop offset="0.9348" stop-color="#FF5280"/>
<stop offset="1" stop-color="#FF7061"/>
</radialGradient>
</defs>
</svg>
