<svg width="64" height="64" viewBox="0 0 64 64" fill="none" xmlns="http://www.w3.org/2000/svg">
<path d="M47.7551 28.1469C48.2134 26.875 48.328 25.6031 48.2134 24.3312C48.0988 23.0594 47.6405 21.7875 47.0676 20.6312C46.0363 18.8969 44.5468 17.5094 42.8281 16.7C40.9948 15.8906 39.0469 15.6594 37.099 16.1219C36.1822 15.1969 35.1511 14.3875 34.0052 13.8094C32.8594 13.2312 31.4844 13 30.224 13C28.2761 13 26.3282 13.5781 24.724 14.7344C23.1199 15.8906 21.9741 17.5094 21.4011 19.3594C20.0261 19.7062 18.8803 20.2844 17.7345 20.9781C16.7033 21.7875 15.9012 22.8281 15.2137 23.8688C14.1824 25.6031 13.8387 27.5687 14.0679 29.5343C14.297 31.5 15.0991 33.35 16.3595 34.8531C15.9012 36.125 15.7866 37.3968 15.9012 38.6688C16.0158 39.9406 16.4741 41.2125 17.047 42.3687C18.0782 44.1031 19.5678 45.4906 21.2866 46.3C23.1199 47.1094 25.0678 47.3406 27.0157 46.8781C27.9323 47.8031 28.9636 48.6125 30.1094 49.1906C31.2553 49.7687 32.6302 50 33.8906 50C35.8385 50 37.7864 49.4219 39.3906 48.2656C40.9948 47.1094 42.1405 45.4906 42.7135 43.6406C43.9738 43.4093 45.2343 42.8312 46.2655 42.0219C47.2968 41.2125 48.2134 40.2875 48.7864 39.1312C49.8175 37.3968 50.1613 35.4312 49.9321 33.4656C49.703 31.5 49.0155 29.65 47.7551 28.1469ZM34.0052 47.5719C32.1719 47.5719 30.7969 46.9937 29.5365 45.9531C29.5365 45.9531 29.6511 45.8375 29.7657 45.8375L37.099 41.5594C37.3281 41.4437 37.4427 41.3281 37.5573 41.0969C37.6718 40.8656 37.6718 40.75 37.6718 40.5187V30.1125L40.7656 31.9625V40.5187C40.8802 44.5656 37.6718 47.5719 34.0052 47.5719ZM19.2241 41.2125C18.422 39.825 18.0782 38.2063 18.422 36.5875C18.422 36.5875 18.5366 36.7031 18.6512 36.7031L25.9844 40.9812C26.2136 41.0969 26.3282 41.0969 26.5573 41.0969C26.7865 41.0969 27.0157 41.0969 27.1303 40.9812L36.0677 35.7781V39.3625L28.6198 43.7562C27.0157 44.6813 25.1824 44.9125 23.4637 44.45C21.6303 43.9875 20.1407 42.8312 19.2241 41.2125ZM17.2762 25.1406C18.0782 23.7531 19.3387 22.7125 20.8282 22.1343V22.3656V30.9219C20.8282 31.1531 20.8282 31.3844 20.9428 31.5C21.0574 31.7312 21.172 31.8469 21.4011 31.9625L30.3385 37.1656L27.2449 39.0156L19.9116 34.7375C18.3074 33.8125 17.1616 32.3094 16.7033 30.575C16.2449 28.8406 16.3595 26.7594 17.2762 25.1406ZM42.5989 31.0375L33.6615 25.8344L36.7552 23.9844L44.0884 28.2625C45.2343 28.9563 46.1509 29.8813 46.7239 31.0375C47.2968 32.1937 47.6405 33.4656 47.5259 34.8531C47.4113 36.125 46.953 37.3968 46.1509 38.4375C45.3489 39.4781 44.3176 40.2875 43.0572 40.75V31.9625C43.0572 31.7312 43.0572 31.5 42.9427 31.3844C42.9427 31.3844 42.8281 31.1531 42.5989 31.0375ZM45.6926 26.4125C45.6926 26.4125 45.578 26.2969 45.4634 26.2969L38.1301 22.0188C37.901 21.9031 37.7864 21.9031 37.5573 21.9031C37.3281 21.9031 37.099 21.9031 36.9844 22.0188L28.0469 27.2219V23.6375L35.4948 19.2437C36.6406 18.55 37.901 18.3187 39.276 18.3187C40.5364 18.3187 41.7968 18.7812 42.9427 19.5906C43.9738 20.4 44.8906 21.4406 45.3489 22.5968C45.8072 23.7531 45.9217 25.1406 45.6926 26.4125ZM26.4427 32.8875L23.3491 31.0375V22.3656C23.3491 21.0938 23.6928 19.7062 24.3803 18.6656C25.0678 17.5094 26.099 16.7 27.2449 16.1219C28.3906 15.5437 29.7657 15.3125 31.0261 15.5437C32.2864 15.6594 33.5469 16.2375 34.5781 17.0469C34.5781 17.0469 34.4635 17.1625 34.3489 17.1625L27.0157 21.4406C26.7865 21.5563 26.6719 21.6718 26.5573 21.9031C26.4427 22.1343 26.4427 22.25 26.4427 22.4813V32.8875ZM28.0469 29.1875L32.0573 26.875L36.0677 29.1875V33.8125L32.0573 36.125L28.0469 33.8125V29.1875Z" fill="black"/>
</svg>
