<svg width="45" height="45" viewBox="0 0 45 45" fill="none" xmlns="http://www.w3.org/2000/svg">
<path d="M27.5158 26.5117C26.6412 27.2719 25.5532 28.2182 23.5716 28.2182H22.3886C20.9566 28.2182 19.6543 27.7086 18.722 26.7824C17.8118 25.8779 17.3097 24.6408 17.3097 23.2973V21.7087C17.3097 20.3652 17.811 19.1272 18.722 18.2235C19.6543 17.2974 20.9566 16.7877 22.3886 16.7877H23.5716C25.5532 16.7877 26.6412 17.734 27.5158 18.4942C28.4228 19.2831 29.2064 19.9642 31.2932 19.9642C31.6173 19.9642 31.9352 19.9386 32.2444 19.8897C32.242 19.8835 32.2397 19.8781 32.2373 19.8719C32.1132 19.5701 31.9668 19.2738 31.7985 18.9876L30.4028 16.6163C29.1226 14.4405 26.7559 13.1009 24.1955 13.1009H21.4042C18.8438 13.1009 16.4771 14.4413 15.1969 16.6163L13.8012 18.9876C12.521 21.1634 12.521 23.8433 13.8012 26.0184L15.1969 28.3896C16.4771 30.5654 18.8438 31.905 21.4042 31.905H24.1955C26.7559 31.905 29.1226 30.5647 30.4028 28.3896L31.7985 26.0184C31.9668 25.7314 32.1132 25.4358 32.2373 25.1341C32.2397 25.1279 32.242 25.1224 32.2444 25.1162C31.9352 25.0674 31.6181 25.0418 31.2932 25.0418C29.2064 25.0418 28.4228 25.7228 27.5158 26.5117Z" fill="#006BFF"/>
<path d="M23.5718 18.2267H22.3888C20.2096 18.2267 18.7768 19.754 18.7768 21.7088V23.2974C18.7768 25.2521 20.2088 26.7794 22.3888 26.7794H23.5718C26.7474 26.7794 26.4983 23.603 31.2934 23.603C31.7528 23.603 32.2067 23.6441 32.6487 23.7247C32.7942 22.9173 32.7942 22.0904 32.6487 21.2821C32.2067 21.3628 31.7528 21.4039 31.2934 21.4039C26.4983 21.4032 26.7474 18.2267 23.5718 18.2267Z" fill="#006BFF"/>
<path d="M35.4028 24.8844C34.5836 24.2918 33.6442 23.9055 32.6478 23.7232C32.6463 23.731 32.6455 23.7388 32.6439 23.7465C32.5585 24.2119 32.4256 24.6703 32.2438 25.1148C33.0843 25.2482 33.8593 25.5585 34.5211 26.034C34.5188 26.041 34.5171 26.048 34.5148 26.0557C34.1329 27.272 33.5572 28.4185 32.8044 29.4617C32.0603 30.4918 31.1613 31.3986 30.1309 32.1565C27.992 33.7304 25.4442 34.5618 22.762 34.5618C21.1015 34.5618 19.4916 34.2431 17.9765 33.6147C16.5128 33.0074 15.1978 32.1378 14.0678 31.0294C12.9379 29.9209 12.0515 28.631 11.4323 27.1952C10.7918 25.709 10.4668 24.1297 10.4668 22.5008C10.4668 20.8718 10.7918 19.2925 11.4323 17.8064C12.0515 16.3706 12.9379 15.0806 14.0678 13.9721C15.1978 12.8637 16.5128 11.9941 17.9765 11.3868C19.4916 10.7585 21.1015 10.4397 22.762 10.4397C25.4442 10.4397 27.992 11.2712 30.1309 12.8451C31.1613 13.6029 32.0603 14.5097 32.8044 15.5398C33.5572 16.5831 34.1329 17.7296 34.5148 18.9458C34.5171 18.9536 34.5195 18.9605 34.5211 18.9676C33.8593 19.443 33.0843 19.7541 32.2438 19.8867C32.4256 20.332 32.5593 20.7911 32.6439 21.2566C32.6455 21.2643 32.6463 21.2713 32.6478 21.2791C33.6442 21.0968 34.5828 20.7105 35.4028 20.1179C36.1879 19.5477 36.0361 18.9039 35.9167 18.5223C34.1858 13.008 28.9512 9 22.762 9C15.1614 9 9 15.0441 9 22.5C9 29.9558 15.1614 36 22.762 36C28.9512 36 34.1858 31.992 35.9167 26.4777C36.0361 26.0984 36.1888 25.4546 35.4028 24.8844Z" fill="#006BFF"/>
<path d="M32.2446 19.8883C31.9354 19.9372 31.6184 19.9628 31.2934 19.9628C29.2066 19.9628 28.423 19.2817 27.516 18.4928C26.6414 17.7326 25.5534 16.7863 23.5718 16.7863H22.3888C20.9568 16.7863 19.6545 17.2959 18.7222 18.2221C17.8121 19.1265 17.3099 20.3638 17.3099 21.7072V23.2959C17.3099 24.6393 17.8112 25.8773 18.7222 26.781C19.6545 27.7071 20.9568 28.2168 22.3888 28.2168H23.5718C25.5534 28.2168 26.6414 27.2704 27.516 26.5103C28.423 25.7214 29.2066 25.0404 31.2934 25.0404C31.6176 25.0404 31.9354 25.066 32.2446 25.1148C32.4265 24.6703 32.5593 24.2112 32.6448 23.7465C32.6463 23.7388 32.6471 23.731 32.6487 23.7232C32.2067 23.6426 31.7528 23.6015 31.2934 23.6015C26.4983 23.6015 26.7474 26.7779 23.5718 26.7779H22.3888C20.2096 26.7779 18.7767 25.2505 18.7767 23.2959V21.7072C18.7767 19.7525 20.2088 18.2252 22.3888 18.2252H23.5718C26.7474 18.2252 26.4983 21.4017 31.2934 21.4017C31.7528 21.4017 32.2067 21.3605 32.6487 21.2798C32.6471 21.2721 32.6463 21.2651 32.6448 21.2573C32.5601 20.7927 32.4265 20.3335 32.2446 19.8883Z" fill="#0AE8F0"/>
<path d="M32.2446 19.8883C31.9354 19.9372 31.6184 19.9628 31.2934 19.9628C29.2066 19.9628 28.423 19.2817 27.516 18.4928C26.6414 17.7326 25.5534 16.7863 23.5718 16.7863H22.3888C20.9568 16.7863 19.6545 17.2959 18.7222 18.2221C17.8121 19.1265 17.3099 20.3638 17.3099 21.7072V23.2959C17.3099 24.6393 17.8112 25.8773 18.7222 26.781C19.6545 27.7071 20.9568 28.2168 22.3888 28.2168H23.5718C25.5534 28.2168 26.6414 27.2704 27.516 26.5103C28.423 25.7214 29.2066 25.0404 31.2934 25.0404C31.6176 25.0404 31.9354 25.066 32.2446 25.1148C32.4265 24.6703 32.5593 24.2112 32.6448 23.7465C32.6463 23.7388 32.6471 23.731 32.6487 23.7232C32.2067 23.6426 31.7528 23.6015 31.2934 23.6015C26.4983 23.6015 26.7474 26.7779 23.5718 26.7779H22.3888C20.2096 26.7779 18.7767 25.2505 18.7767 23.2959V21.7072C18.7767 19.7525 20.2088 18.2252 22.3888 18.2252H23.5718C26.7474 18.2252 26.4983 21.4017 31.2934 21.4017C31.7528 21.4017 32.2067 21.3605 32.6487 21.2798C32.6471 21.2721 32.6463 21.2651 32.6448 21.2573C32.5601 20.7927 32.4265 20.3335 32.2446 19.8883Z" fill="#0AE8F0"/>
</svg>
