<svg width="64" height="64" viewBox="0 0 64 64" fill="none" xmlns="http://www.w3.org/2000/svg">
<path d="M14.76 26.0004H11.0266C10.771 26.0004 10.5538 26.1861 10.5139 26.4383L9.00392 36.012C8.97389 36.2008 9.12022 36.3712 9.31181 36.3712H11.0942C11.3497 36.3712 11.567 36.1856 11.6068 35.9328L12.0141 33.3507C12.0534 33.0979 12.2712 32.9122 12.5261 32.9122H13.708C16.1674 32.9122 17.5867 31.7222 17.9575 29.3638C18.1245 28.332 17.9645 27.5214 17.4814 26.9536C16.9508 26.3301 16.0096 26.0004 14.76 26.0004ZM15.1908 29.497C14.9866 30.8367 13.963 30.8367 12.9732 30.8367H12.4099L12.8051 28.3348C12.8286 28.1836 12.9596 28.0722 13.1125 28.0722H13.3707C14.0449 28.0722 14.6809 28.0722 15.0095 28.4565C15.2055 28.6858 15.2656 29.0264 15.1908 29.497Z" fill="#283B82"/>
<path d="M25.92 29.454H24.1322C23.9799 29.454 23.8484 29.5653 23.8248 29.7166L23.7458 30.2166L23.6207 30.0353C23.2337 29.4736 22.3705 29.2858 21.5091 29.2858C19.5335 29.2858 17.846 30.7822 17.5174 32.8812C17.3466 33.9282 17.5895 34.9294 18.1834 35.6276C18.7282 36.2696 19.5078 36.5371 20.4353 36.5371C22.0272 36.5371 22.91 35.5136 22.91 35.5136L22.8302 36.0104C22.8002 36.2003 22.9465 36.3707 23.1371 36.3707H24.7474C25.0035 36.3707 25.2196 36.185 25.2601 35.9323L26.2263 29.8132C26.2569 29.6248 26.1112 29.454 25.92 29.454ZM23.428 32.9336C23.2555 33.955 22.4448 34.6407 21.4109 34.6407C20.8917 34.6407 20.4768 34.4742 20.2104 34.1586C19.9462 33.8453 19.8457 33.3993 19.9298 32.9025C20.0908 31.8898 20.9152 31.1818 21.9333 31.1818C22.441 31.1818 22.8537 31.3505 23.1256 31.6687C23.398 31.9902 23.506 32.439 23.428 32.9336Z" fill="#283B82"/>
<path d="M35.4419 29.4539H33.6453C33.4739 29.4539 33.3128 29.5391 33.2157 29.6816L30.7377 33.3315L29.6875 29.8241C29.6214 29.6046 29.4189 29.4539 29.1896 29.4539H27.4241C27.2095 29.4539 27.0605 29.6635 27.1288 29.8655L29.1077 35.6729L27.2472 38.2993C27.1009 38.5062 27.2483 38.7907 27.5011 38.7907H29.2955C29.4658 38.7907 29.6253 38.7077 29.7219 38.5679L35.6973 29.9425C35.8404 29.7361 35.6936 29.4539 35.4419 29.4539Z" fill="#283B82"/>
<path d="M41.3901 26.0004H37.6561C37.4011 26.0004 37.1838 26.1861 37.144 26.4383L35.634 36.012C35.604 36.2008 35.7503 36.3712 35.9408 36.3712H37.857C38.0349 36.3712 38.1873 36.2413 38.2151 36.0644L38.6436 33.3507C38.6829 33.0979 38.9008 32.9122 39.1557 32.9122H40.3371C42.7969 32.9122 44.2157 31.7222 44.587 29.3638C44.7546 28.332 44.5936 27.5214 44.1104 26.9536C43.5803 26.3301 42.6397 26.0004 41.3901 26.0004ZM41.8209 29.497C41.6172 30.8367 40.5937 30.8367 39.6033 30.8367H39.0405L39.4363 28.3348C39.4598 28.1836 39.5896 28.0722 39.7431 28.0722H40.0013C40.675 28.0722 41.3115 28.0722 41.6401 28.4565C41.8361 28.6858 41.8956 29.0264 41.8209 29.497Z" fill="#469BDB"/>
<path d="M52.5497 29.454H50.7629C50.6095 29.454 50.479 29.5653 50.4561 29.7166L50.3769 30.2166L50.2514 30.0353C49.8644 29.4736 49.0018 29.2858 48.1404 29.2858C46.1646 29.2858 44.4779 30.7822 44.1491 32.8812C43.9789 33.9282 44.2207 34.9294 44.8147 35.6276C45.3606 36.2696 46.139 36.5371 47.0665 36.5371C48.6584 36.5371 49.5411 35.5136 49.5411 35.5136L49.4614 36.0104C49.4314 36.2003 49.5777 36.3707 49.7694 36.3707H51.3792C51.6342 36.3707 51.8515 36.185 51.8913 35.9323L52.8581 29.8132C52.8875 29.6248 52.7413 29.454 52.5497 29.454ZM50.0575 32.9336C49.8861 33.955 49.0743 34.6407 48.0405 34.6407C47.5223 34.6407 47.1064 34.4742 46.8399 34.1586C46.5758 33.8453 46.4764 33.3993 46.5594 32.9025C46.7215 31.8898 47.5448 31.1818 48.5629 31.1818C49.0706 31.1818 49.4832 31.3505 49.7551 31.6687C50.0286 31.9902 50.1367 32.439 50.0575 32.9336Z" fill="#469BDB"/>
<path d="M54.6574 26.2631L53.125 36.012C53.095 36.2008 53.2413 36.3712 53.4318 36.3712H54.9724C55.2284 36.3712 55.4457 36.1856 55.485 35.9328L56.996 26.3598C57.0261 26.1708 56.8799 25.9999 56.6893 25.9999H54.9642C54.8119 26.0004 54.6809 26.1119 54.6574 26.2631Z" fill="#469BDB"/>
</svg>
