<svg width="28" height="28" viewBox="0 0 28 28" fill="none" xmlns="http://www.w3.org/2000/svg">
<path d="M12.2746 3.06134C12.4933 2.82111 12.7597 2.62919 13.0569 2.49786C13.354 2.36654 13.6753 2.29871 14.0001 2.29871C14.325 2.29871 14.6463 2.36654 14.9434 2.49786C15.2405 2.62919 15.507 2.82111 15.7256 3.06134L16.9156 4.36801C17.1467 4.62166 17.4308 4.82123 17.7478 4.95251C18.0648 5.08379 18.4069 5.14354 18.7496 5.12751L20.5148 5.04584C20.8392 5.03056 21.1632 5.08315 21.466 5.20025C21.7689 5.31735 22.044 5.49638 22.2737 5.72588C22.5035 5.95539 22.6828 6.23032 22.8001 6.53309C22.9175 6.83586 22.9704 7.15979 22.9555 7.48417L22.8726 9.25051C22.8566 9.59324 22.9163 9.9353 23.0476 10.2523C23.1789 10.5693 23.3785 10.8535 23.6321 11.0845L24.9388 12.2745C25.179 12.4932 25.3709 12.7596 25.5023 13.0567C25.6336 13.3539 25.7014 13.6752 25.7014 14C25.7014 14.3249 25.6336 14.6461 25.5023 14.9433C25.3709 15.2404 25.179 15.5068 24.9388 15.7255L23.6321 16.9155C23.3785 17.1466 23.1789 17.4307 23.0476 17.7477C22.9163 18.0647 22.8566 18.4068 22.8726 18.7495L22.9543 20.5147C22.9696 20.839 22.917 21.163 22.7999 21.4659C22.6828 21.7688 22.5038 22.0439 22.2743 22.2736C22.0447 22.5033 21.7698 22.6826 21.467 22.8C21.1643 22.9174 20.8403 22.9703 20.516 22.9553L18.7496 22.8725C18.4069 22.8565 18.0648 22.9162 17.7478 23.0475C17.4308 23.1788 17.1467 23.3784 16.9156 23.632L15.7256 24.9387C15.507 25.1789 15.2405 25.3708 14.9434 25.5022C14.6463 25.6335 14.325 25.7013 14.0001 25.7013C13.6753 25.7013 13.354 25.6335 13.0569 25.5022C12.7597 25.3708 12.4933 25.1789 12.2746 24.9387L11.0846 23.632C10.8536 23.3784 10.5694 23.1788 10.2524 23.0475C9.93542 22.9162 9.59337 22.8565 9.25063 22.8725L7.48546 22.9542C7.16109 22.9695 6.83711 22.9169 6.53423 22.7998C6.23135 22.6827 5.95625 22.5036 5.72652 22.2741C5.49679 22.0446 5.3175 21.7697 5.20011 21.4669C5.08272 21.1642 5.02982 20.8402 5.0448 20.5158L5.12763 18.7495C5.14366 18.4068 5.08391 18.0647 4.95263 17.7477C4.82136 17.4307 4.62178 17.1466 4.36813 16.9155L3.06146 15.7255C2.82123 15.5068 2.62931 15.2404 2.49799 14.9433C2.36666 14.6461 2.29883 14.3249 2.29883 14C2.29883 13.6752 2.36666 13.3539 2.49799 13.0567C2.62931 12.7596 2.82123 12.4932 3.06146 12.2745L4.36813 11.0845C4.62178 10.8535 4.82136 10.5693 4.95263 10.2523C5.08391 9.9353 5.14366 9.59324 5.12763 9.25051L5.04596 7.48534C5.03068 7.16097 5.08327 6.83699 5.20037 6.53411C5.31747 6.23123 5.4965 5.95613 5.72601 5.7264C5.95551 5.49667 6.23044 5.31738 6.53321 5.19999C6.83598 5.0826 7.15991 5.0297 7.4843 5.04467L9.25063 5.12751C9.59337 5.14354 9.93542 5.08379 10.2524 4.95251C10.5694 4.82123 10.8536 4.62166 11.0846 4.36801L12.2746 3.06134Z" stroke="#F129A1" stroke-width="1.75"/>
<path d="M10.5 14L12.8333 16.3334L17.5 11.6667" stroke="#F129A1" stroke-width="1.75" stroke-linecap="round" stroke-linejoin="round"/>
</svg>
